ply
format ascii 1.0
comment Created by Blender 3.6.2 - www.blender.org
element vertex 337
property float x
property float y
property float z
property float nx
property float ny
property float nz
property uchar red
property uchar green
property uchar blue
property uchar alpha
element face 515
property list uchar uint vertex_indices
end_header
0.011000 -0.010833 0.087852 0.954375 -0.196932 0.224468 45 46 47 255
0.010064 -0.012798 0.085823 0.822123 -0.270672 -0.500850 45 46 47 255
0.009510 -0.011305 0.085244 0.714584 -0.005994 -0.699524 45 46 47 255
0.010008 -0.013556 0.087221 0.792124 -0.598085 0.121791 45 46 47 255
0.009375 -0.013136 0.088619 0.509042 -0.428454 0.746527 45 46 47 255
0.008535 -0.011783 0.089198 0.304055 -0.209007 0.929444 45 46 47 255
0.007140 -0.015097 0.084008 0.487523 -0.525599 -0.697185 45 46 47 255
0.006285 -0.012794 0.083115 0.390269 -0.203375 -0.897958 45 46 47 255
0.006076 -0.015618 0.088321 0.141629 -0.695064 0.704859 45 46 47 255
0.007054 -0.016267 0.086165 0.450741 -0.892649 0.003308 45 46 47 255
0.003242 -0.016210 0.083591 -0.024376 -0.671587 -0.740525 45 46 47 255
0.002637 -0.014581 0.082960 -0.070033 -0.383216 -0.921000 45 46 47 255
0.003181 -0.017037 0.085116 -0.065768 -0.988563 -0.135713 45 46 47 255
0.004780 -0.013531 0.089214 -0.054597 -0.421329 0.905263 45 46 47 255
0.002490 -0.016578 0.086641 -0.324117 -0.818440 0.474450 45 46 47 255
0.000461 -0.015647 0.084613 -0.551667 -0.800888 -0.232901 45 46 47 255
0.001573 -0.015102 0.087273 -0.463398 -0.575939 0.673466 45 46 47 255
-0.010999 -0.010834 0.087852 -0.954375 -0.196932 0.224468 45 46 47 255
-0.009509 -0.011305 0.085244 -0.714584 -0.005993 -0.699524 45 46 47 255
-0.010063 -0.012798 0.085823 -0.822123 -0.270672 -0.500850 45 46 47 255
-0.010007 -0.013556 0.087221 -0.792124 -0.598085 0.121791 45 46 47 255
-0.009374 -0.013136 0.088619 -0.509043 -0.428454 0.746527 45 46 47 255
-0.008534 -0.011783 0.089198 -0.304055 -0.209006 0.929444 45 46 47 255
-0.007139 -0.015097 0.084008 -0.487523 -0.525599 -0.697185 45 46 47 255
-0.006075 -0.015618 0.088321 -0.141628 -0.695064 0.704860 45 46 47 255
-0.006284 -0.012794 0.083115 -0.390269 -0.203375 -0.897958 45 46 47 255
-0.003241 -0.016210 0.083591 0.024375 -0.671587 -0.740525 45 46 47 255
-0.003180 -0.017037 0.085116 0.065768 -0.988563 -0.135714 45 46 47 255
-0.007053 -0.016267 0.086165 -0.450741 -0.892649 0.003307 45 46 47 255
-0.002489 -0.016578 0.086641 0.324117 -0.818441 0.474450 45 46 47 255
-0.004779 -0.013531 0.089214 0.054599 -0.421328 0.905264 45 46 47 255
-0.000460 -0.015648 0.084613 0.551667 -0.800888 -0.232901 45 46 47 255
-0.002636 -0.014581 0.082960 0.070033 -0.383216 -0.921000 45 46 47 255
-0.001572 -0.015103 0.087273 0.463398 -0.575939 0.673466 45 46 47 255
0.002359 -0.015001 0.077330 0.217599 -0.969885 -0.109426 45 46 47 255
0.003867 -0.014612 0.077636 0.267466 -0.958194 -0.101622 45 46 47 255
0.002284 -0.015086 0.077933 0.207469 -0.971877 -0.111410 45 46 47 255
0.000000 -0.015394 0.077330 -0.000000 -0.992374 -0.123261 45 46 47 255
0.000000 -0.015470 0.077933 -0.000000 -0.992273 -0.124071 45 46 47 255
-0.002358 -0.015001 0.077330 -0.217599 -0.969885 -0.109426 45 46 47 255
-0.002283 -0.015086 0.077933 -0.207469 -0.971877 -0.111410 45 46 47 255
-0.003867 -0.014612 0.077636 -0.267466 -0.958194 -0.101622 45 46 47 255
0.011410 0.012036 0.049623 0.745846 0.662138 0.072709 119 81 130 255
0.013807 0.001009 0.066427 0.998707 0.024781 0.044384 119 81 130 255
0.014636 0.001165 0.047587 0.998002 -0.010707 0.062266 119 81 130 255
0.010474 -0.010176 0.064267 0.744595 -0.667292 0.017284 119 81 130 255
0.011410 -0.009606 0.046004 0.724407 -0.687322 0.053138 119 81 130 255
-0.000000 -0.014096 0.063395 -0.000000 -0.999769 -0.021492 119 81 130 255
-0.000000 -0.013424 0.045602 -0.000000 -0.999255 0.038598 119 81 130 255
0.016481 0.019272 0.002815 0.699158 0.609352 0.373989 119 81 130 255
0.017393 0.001315 0.013115 0.973280 -0.026279 0.228111 119 81 130 255
0.021686 0.001417 0.002280 0.925850 -0.022059 0.377246 119 81 130 255
0.013237 -0.012508 0.011601 0.708615 -0.641206 0.294483 119 81 130 255
0.016481 -0.016027 0.002037 0.659427 -0.604447 0.446990 119 81 130 255
-0.000000 -0.018219 0.011542 -0.000000 -0.948350 0.317227 119 81 130 255
-0.000000 -0.023138 0.002071 0.000000 -0.887446 0.460911 119 81 130 255
-0.000000 0.020776 0.018157 -0.000000 0.975008 0.222171 119 81 130 255
0.013237 0.015368 0.015683 0.743443 0.626093 0.235159 119 81 130 255
0.009405 -0.000041 0.061860 -0.511589 -0.772940 0.375288 119 81 130 255
0.015644 -0.005535 0.059052 -0.220600 -0.741514 0.633634 119 81 130 255
0.013109 -0.000494 0.065080 0.039976 -0.662966 0.747582 119 81 130 255
0.019433 -0.003216 0.060316 0.614188 -0.474385 0.630660 119 81 130 255
0.017147 0.002226 0.065505 0.556841 -0.117126 0.822320 119 81 130 255
0.021581 0.001034 0.058214 0.963582 0.163274 0.211781 119 81 130 255
0.018272 0.006932 0.063037 0.684328 0.617650 0.387561 119 81 130 255
0.016101 0.008145 0.059033 0.352094 0.904030 -0.242405 119 81 130 255
0.019757 0.004138 0.053863 0.659472 0.700698 -0.272247 119 81 130 255
0.011805 0.006886 0.057010 -0.089099 0.823788 -0.559852 119 81 130 255
0.016052 0.003705 0.050748 -0.148156 0.799058 -0.582715 119 81 130 255
0.012281 -0.007640 0.043014 -0.815746 0.565176 -0.123020 119 81 130 255
0.017590 -0.004597 0.037975 0.069654 0.682548 -0.727514 119 81 130 255
0.011611 -0.011655 0.047725 -0.867278 0.055404 0.494731 119 81 130 255
0.012341 -0.000155 0.052008 -0.850942 0.370362 -0.372464 119 81 130 255
0.016032 -0.014353 0.051275 -0.189803 -0.642557 0.742358 119 81 130 255
0.012166 -0.004170 0.055343 -0.854825 -0.421929 0.302076 119 81 130 255
0.019812 -0.013682 0.050910 0.591122 -0.648422 0.479712 119 81 130 255
0.023101 -0.010171 0.047005 0.975242 -0.221117 -0.003192 119 81 130 255
0.021072 -0.006832 0.039406 0.812841 0.214789 -0.541438 119 81 130 255
0.009726 -0.012267 0.033079 -0.137938 0.713040 -0.687421 119 81 130 255
0.006766 -0.012421 0.039029 -0.580248 0.811017 0.074589 119 81 130 255
0.009274 -0.020268 0.045674 -0.137517 -0.407076 0.902983 119 81 130 255
0.006573 -0.015870 0.044217 -0.544325 0.416369 0.728249 119 81 130 255
0.014576 -0.021169 0.036445 0.672661 -0.634572 -0.380586 119 81 130 255
0.012837 -0.023698 0.041927 0.462878 -0.850843 0.248617 119 81 130 255
0.013202 -0.017232 0.031641 0.526890 -0.118539 -0.841627 119 81 130 255
0.009372 0.004429 0.068653 0.420211 0.228079 0.878295 119 81 130 255
0.009207 0.009176 0.065991 0.392339 0.742131 0.543425 119 81 130 255
0.009737 0.009347 0.061350 0.186201 0.979354 -0.078708 119 81 130 255
0.001473 -0.015268 0.038066 -0.474391 0.868976 0.140834 119 81 130 255
0.002022 -0.016629 0.030123 -0.083823 0.781365 -0.618420 119 81 130 255
0.001181 -0.018465 0.043403 -0.344848 0.494924 0.797577 119 81 130 255
0.001670 -0.023369 0.044671 0.027382 -0.367668 0.929554 119 81 130 255
0.002572 -0.026675 0.040810 0.254538 -0.915856 0.310514 119 81 130 255
0.003208 -0.025746 0.034767 0.388141 -0.845924 -0.365730 119 81 130 255
0.002791 -0.020449 0.026668 0.450113 -0.082069 -0.889192 119 81 130 255
-0.000000 0.016353 0.051078 -0.000000 0.998022 0.062861 119 81 130 255
0.010474 0.012193 0.068588 0.708601 0.705392 0.017533 119 81 130 255
-0.000000 0.025965 0.003300 -0.000000 0.935400 0.353591 119 81 130 255
-0.011410 0.012036 0.049623 -0.745846 0.662138 0.072709 119 81 130 255
-0.013807 0.001009 0.066427 -0.998707 0.024782 0.044384 119 81 130 255
-0.010474 0.012193 0.068588 -0.708600 0.705392 0.017533 119 81 130 255
-0.014636 0.001165 0.047587 -0.998002 -0.010707 0.062266 119 81 130 255
-0.010474 -0.010176 0.064267 -0.744595 -0.667292 0.017285 119 81 130 255
-0.011410 -0.009606 0.046004 -0.724407 -0.687322 0.053138 119 81 130 255
-0.016481 0.019272 0.002815 -0.699158 0.609351 0.373990 119 81 130 255
-0.017393 0.001315 0.013115 -0.973280 -0.026279 0.228111 119 81 130 255
-0.013237 0.015368 0.015683 -0.743444 0.626092 0.235159 119 81 130 255
-0.021686 0.001417 0.002280 -0.925850 -0.022058 0.377248 119 81 130 255
-0.013237 -0.012508 0.011601 -0.708615 -0.641205 0.294483 119 81 130 255
-0.016481 -0.016027 0.002037 -0.659426 -0.604447 0.446991 119 81 130 255
-0.015644 -0.005535 0.059052 0.220601 -0.741515 0.633633 119 81 130 255
-0.009405 -0.000041 0.061860 0.511588 -0.772941 0.375286 119 81 130 255
-0.013109 -0.000494 0.065080 -0.039977 -0.662966 0.747582 119 81 130 255
-0.019433 -0.003216 0.060316 -0.614187 -0.474385 0.630661 119 81 130 255
-0.017148 0.002226 0.065505 -0.556842 -0.117123 0.822319 119 81 130 255
-0.021581 0.001034 0.058214 -0.963582 0.163274 0.211781 119 81 130 255
-0.018272 0.006932 0.063037 -0.684327 0.617651 0.387562 119 81 130 255
-0.016101 0.008145 0.059033 -0.352095 0.904029 -0.242404 119 81 130 255
-0.011805 0.006886 0.057010 0.089099 0.823788 -0.559852 119 81 130 255
-0.019757 0.004138 0.053863 -0.659472 0.700698 -0.272247 119 81 130 255
-0.016052 0.003705 0.050748 0.148156 0.799058 -0.582715 119 81 130 255
-0.012281 -0.007640 0.043014 0.815746 0.565176 -0.123020 119 81 130 255
-0.017590 -0.004597 0.037975 -0.069654 0.682548 -0.727514 119 81 130 255
-0.012341 -0.000155 0.052008 0.850942 0.370362 -0.372464 119 81 130 255
-0.011611 -0.011655 0.047725 0.867278 0.055404 0.494731 119 81 130 255
-0.012166 -0.004170 0.055343 0.854825 -0.421929 0.302076 119 81 130 255
-0.016032 -0.014353 0.051275 0.189803 -0.642556 0.742359 119 81 130 255
-0.019812 -0.013682 0.050910 -0.591123 -0.648422 0.479711 119 81 130 255
-0.023101 -0.010171 0.047005 -0.975242 -0.221116 -0.003192 119 81 130 255
-0.021072 -0.006832 0.039406 -0.812841 0.214789 -0.541438 119 81 130 255
-0.009726 -0.012267 0.033079 0.095696 0.673143 -0.733295 119 81 130 255
-0.006766 -0.012421 0.039029 0.624035 0.758833 0.186420 119 81 130 255
-0.006573 -0.015870 0.044217 0.544326 0.416370 0.728248 119 81 130 255
-0.009274 -0.020268 0.045674 0.137517 -0.407076 0.902983 119 81 130 255
-0.012837 -0.023698 0.041927 -0.462878 -0.850843 0.248618 119 81 130 255
-0.014576 -0.021169 0.036445 -0.672661 -0.634572 -0.380586 119 81 130 255
-0.013202 -0.017232 0.031641 -0.526890 -0.118539 -0.841627 119 81 130 255
-0.009207 0.009176 0.065991 -0.392339 0.742132 0.543424 119 81 130 255
-0.009372 0.004429 0.068653 -0.420211 0.228080 0.878295 119 81 130 255
-0.009737 0.009347 0.061350 -0.186202 0.979354 -0.078707 119 81 130 255
-0.001473 -0.015268 0.038066 0.475336 0.850264 0.226068 119 81 130 255
-0.002022 -0.016629 0.030123 0.083823 0.781365 -0.618420 119 81 130 255
-0.001181 -0.018465 0.043403 0.344850 0.494923 0.797577 119 81 130 255
-0.001670 -0.023369 0.044671 -0.027383 -0.367669 0.929554 119 81 130 255
-0.002572 -0.026675 0.040810 -0.254538 -0.915856 0.310514 119 81 130 255
-0.003208 -0.025746 0.034767 -0.388141 -0.845924 -0.365730 119 81 130 255
-0.002791 -0.020449 0.026668 -0.450113 -0.082067 -0.889192 119 81 130 255
-0.000000 0.016712 0.069460 -0.000000 0.999809 -0.019527 119 81 130 255
0.012484 -0.000921 0.086334 0.983973 -0.038120 -0.174193 158 174 140 255
0.013225 0.004655 0.096023 0.964698 0.135512 0.225818 158 174 140 255
0.012716 -0.000336 0.097163 0.939260 -0.108356 0.325653 158 174 140 255
0.012774 0.007940 0.091976 0.935528 0.353245 0.002430 158 174 140 255
0.011854 0.008385 0.086699 0.888831 0.391517 -0.238106 158 174 140 255
0.011166 0.006192 0.082650 0.846343 0.287748 -0.448224 158 174 140 255
0.010508 0.002340 0.080217 0.811292 0.117554 -0.572701 158 174 140 255
0.009902 -0.001951 0.079189 0.797361 0.015448 -0.603305 158 174 140 255
0.010174 -0.008035 0.079667 0.850619 -0.150909 -0.503660 158 174 140 255
0.010393 -0.010478 0.081833 0.865356 -0.425818 -0.264270 158 174 140 255
0.010898 -0.011544 0.086185 0.814805 -0.568774 -0.112203 158 174 140 255
0.011497 -0.010668 0.091215 0.834123 -0.542234 0.101098 158 174 140 255
0.012294 -0.007547 0.095261 0.885365 -0.346160 0.310326 158 174 140 255
0.007739 -0.000127 0.105148 0.545950 -0.155630 0.823236 158 174 140 255
0.007782 0.014689 0.096200 0.511775 0.827618 0.230511 158 174 140 255
0.008457 0.009101 0.103830 0.600502 0.402189 0.691116 158 174 140 255
0.006753 0.014854 0.086582 0.519266 0.820548 -0.238881 158 174 140 255
0.006318 0.010627 0.080299 0.588778 0.589395 -0.553131 158 174 140 255
0.006174 0.005005 0.077429 0.626973 0.253847 -0.736523 158 174 140 255
0.005801 -0.002228 0.075850 0.643489 0.066949 -0.762522 158 174 140 255
0.006452 -0.009500 0.075714 0.773866 -0.084539 -0.627682 158 174 140 255
0.006202 -0.014688 0.086399 0.403366 -0.915024 0.005230 158 174 140 255
0.006472 -0.013885 0.076877 0.598016 -0.758882 -0.257826 158 174 140 255
0.006224 -0.013568 0.094706 0.441214 -0.838007 0.321051 158 174 140 255
0.006644 -0.008504 0.101450 0.488314 -0.526529 0.695928 158 174 140 255
-0.000000 -0.000202 0.106873 0.000000 -0.166513 0.986039 158 174 140 255
-0.000000 0.010445 0.106072 -0.000000 0.522358 0.852726 158 174 140 255
-0.000000 0.015822 0.095463 0.000000 0.970628 0.240584 158 174 140 255
-0.000000 0.016918 0.086513 -0.000000 0.983666 -0.180003 158 174 140 255
-0.000000 0.012909 0.079177 -0.000000 0.847544 -0.530725 158 174 140 255
-0.000000 -0.016057 0.086399 -0.000000 -0.999861 0.016699 158 174 140 255
-0.000000 -0.015278 0.095887 -0.000000 -0.939100 0.343643 158 174 140 255
-0.000000 -0.011552 0.101398 -0.000000 -0.684282 0.729217 158 174 140 255
-0.012484 -0.000921 0.086334 -0.983973 -0.038120 -0.174193 158 174 140 255
-0.012716 -0.000336 0.097163 -0.939260 -0.108355 0.325653 158 174 140 255
-0.013225 0.004655 0.096023 -0.964698 0.135512 0.225818 158 174 140 255
-0.012774 0.007940 0.091976 -0.935528 0.353245 0.002430 158 174 140 255
-0.011854 0.008385 0.086699 -0.888831 0.391517 -0.238106 158 174 140 255
-0.011166 0.006192 0.082650 -0.846342 0.287749 -0.448224 158 174 140 255
-0.010508 0.002340 0.080217 -0.811292 0.117554 -0.572701 158 174 140 255
-0.009902 -0.001951 0.079189 -0.797361 0.015450 -0.603306 158 174 140 255
-0.010174 -0.008035 0.079667 -0.850620 -0.150909 -0.503659 158 174 140 255
-0.010393 -0.010478 0.081833 -0.865355 -0.425819 -0.264269 158 174 140 255
-0.010898 -0.011544 0.086185 -0.814805 -0.568774 -0.112203 158 174 140 255
-0.011497 -0.010668 0.091215 -0.834124 -0.542234 0.101097 158 174 140 255
-0.012294 -0.007547 0.095261 -0.885365 -0.346160 0.310326 158 174 140 255
-0.007739 -0.000127 0.105148 -0.545951 -0.155630 0.823236 158 174 140 255
-0.007782 0.014689 0.096200 -0.511775 0.827618 0.230511 158 174 140 255
-0.006753 0.014854 0.086582 -0.519266 0.820548 -0.238882 158 174 140 255
-0.006318 0.010627 0.080299 -0.588778 0.589395 -0.553131 158 174 140 255
-0.006174 0.005005 0.077429 -0.626973 0.253848 -0.736523 158 174 140 255
-0.005801 -0.002228 0.075850 -0.643489 0.066950 -0.762522 158 174 140 255
-0.006452 -0.009500 0.075714 -0.773865 -0.084540 -0.627683 158 174 140 255
-0.006202 -0.014688 0.086399 -0.403366 -0.915024 0.005230 158 174 140 255
-0.006224 -0.013568 0.094706 -0.441214 -0.838007 0.321050 158 174 140 255
-0.006644 -0.008504 0.101450 -0.488314 -0.526529 0.695928 158 174 140 255
-0.008457 0.009101 0.103830 -0.600502 0.402189 0.691116 158 174 140 255
-0.006472 -0.013885 0.076877 -0.598016 -0.758882 -0.257826 158 174 140 255
-0.000000 -0.015148 0.074797 0.000000 -0.996945 -0.078106 158 174 140 255
0.017526 0.000028 0.074351 1.000000 -0.000000 0.000001 255 255 255 255
0.010941 0.014668 0.082447 0.480650 0.267305 0.835178 255 255 255 255
0.015596 -0.000953 0.079430 0.632083 -0.146947 0.760840 255 255 255 255
0.008212 0.010873 0.081714 -0.340879 -0.444970 0.828132 255 255 255 255
0.011735 -0.000953 0.079430 -0.492381 -0.165054 0.854587 255 255 255 255
0.006847 0.009957 0.076269 -0.538267 -0.525813 0.658626 255 255 255 255
0.009805 0.000028 0.074351 -0.664636 -0.139700 0.733991 255 255 255 255
0.010941 0.016629 0.072289 0.576954 0.655203 -0.487682 255 255 255 255
0.012306 0.017546 0.077735 0.721027 0.680243 0.131874 255 255 255 255
0.010941 -0.016574 0.076413 0.465704 -0.566278 0.680036 255 255 255 255
0.008212 -0.012780 0.077146 -0.349205 0.085938 0.933097 255 255 255 255
0.006847 -0.009901 0.072433 -0.549268 0.240223 0.800373 255 255 255 255
0.010941 -0.014612 0.066255 0.591047 -0.451040 -0.668750 255 255 255 255
0.012306 -0.017491 0.070968 0.717891 -0.684048 -0.129270 255 255 255 255
-0.000000 -0.020455 0.075421 -0.000000 -0.715691 0.698417 255 255 255 255
-0.000000 -0.022150 0.069825 0.000000 -0.980956 -0.194228 255 255 255 255
-0.000000 -0.016816 0.075795 0.000000 0.271287 0.962498 255 255 255 255
-0.000000 -0.013844 0.071672 0.000000 0.543078 0.839682 255 255 255 255
-0.000000 -0.018493 0.065263 0.000000 -0.633070 -0.774095 255 255 255 255
-0.000000 0.000212 0.073414 0.000000 -0.189398 0.981900 255 255 255 255
-0.000000 -0.008017 0.071577 0.000000 -0.120009 0.992773 255 255 255 255
0.010474 0.012193 0.068588 0.632651 0.455744 -0.626139 255 255 255 255
0.015596 0.001009 0.069272 0.897456 0.093291 -0.431126 255 255 255 255
0.013807 0.001009 0.066427 0.844153 0.073696 -0.531013 255 255 255 255
0.010474 -0.010176 0.064267 0.658541 -0.248828 -0.710218 255 255 255 255
-0.000000 -0.014096 0.063395 0.000000 -0.390742 -0.920500 255 255 255 255
-0.000000 0.018723 0.083188 -0.000000 0.439344 0.898319 255 255 255 255
-0.000000 0.022380 0.078626 0.000000 0.982007 0.188845 255 255 255 255
-0.000000 0.015601 0.082627 0.000000 -0.530476 0.847700 255 255 255 255
-0.000000 0.013899 0.077030 0.000001 -0.788025 0.615643 255 255 255 255
-0.000000 0.020685 0.073030 0.000000 0.866702 -0.498827 255 255 255 255
-0.000000 0.007190 0.074807 0.000000 -0.248905 0.968528 255 255 255 255
-0.000000 0.016712 0.069460 -0.000000 0.657709 -0.753273 255 255 255 255
-0.006847 0.009957 0.076269 0.538267 -0.525814 0.658627 255 255 255 255
-0.010941 0.014668 0.082447 -0.480650 0.267305 0.835179 255 255 255 255
-0.017526 0.000028 0.074351 -1.000000 -0.000000 0.000001 255 255 255 255
-0.015596 -0.000953 0.079430 -0.632083 -0.146947 0.760840 255 255 255 255
-0.008211 0.010873 0.081714 0.340879 -0.444971 0.828132 255 255 255 255
-0.011735 -0.000953 0.079430 0.492380 -0.165055 0.854587 255 255 255 255
-0.010941 0.016629 0.072289 -0.576954 0.655203 -0.487682 255 255 255 255
-0.015596 0.001009 0.069272 -0.897456 0.093292 -0.431125 255 255 255 255
-0.010941 -0.016574 0.076413 -0.465704 -0.566278 0.680036 255 255 255 255
-0.012306 -0.017491 0.070968 -0.717891 -0.684048 -0.129270 255 255 255 255
-0.008212 -0.012780 0.077146 0.349206 0.085939 0.933097 255 255 255 255
-0.006847 -0.009901 0.072433 0.549268 0.240224 0.800373 255 255 255 255
-0.010941 -0.014612 0.066255 -0.591047 -0.451040 -0.668750 255 255 255 255
-0.009805 0.000028 0.074351 0.664636 -0.139701 0.733991 255 255 255 255
-0.010474 0.012193 0.068588 -0.632650 0.455744 -0.626139 255 255 255 255
-0.013807 0.001009 0.066427 -0.844153 0.073696 -0.531013 255 255 255 255
-0.010474 -0.010176 0.064267 -0.658540 -0.248828 -0.710218 255 255 255 255
-0.012306 0.017546 0.077735 -0.721027 0.680243 0.131874 255 255 255 255
0.005770 -0.015273 0.056581 0.776382 -0.628664 -0.044861 255 213 130 255
0.004080 -0.011494 0.060940 0.707105 -0.050334 0.705315 255 213 130 255
0.004080 -0.015563 0.060650 0.548983 -0.667742 0.502731 255 213 130 255
-0.000000 -0.015683 0.062336 -0.000000 -0.683929 0.729549 255 213 130 255
-0.000000 -0.011614 0.062626 -0.000000 -0.071188 0.997463 255 213 130 255
0.004080 -0.014982 0.052511 0.548983 -0.589586 -0.592457 255 213 130 255
-0.000000 -0.010793 0.051116 0.000000 0.071183 -0.997463 255 213 130 255
0.004080 -0.010913 0.052802 0.707105 0.050335 -0.705315 255 213 130 255
0.005770 -0.011203 0.056871 1.000000 0.000001 -0.000002 255 213 130 255
0.003742 -0.015273 0.056581 -0.594379 -0.802145 -0.057248 255 213 130 255
0.002646 -0.015461 0.059220 -0.420286 -0.772231 -0.476465 255 213 130 255
-0.000000 -0.015539 0.060313 -0.000000 -0.759836 -0.650114 255 213 130 255
-0.000000 -0.015006 0.052849 0.000000 -0.844460 0.535619 255 213 130 255
0.002646 -0.015084 0.053942 -0.420288 -0.832065 0.361976 255 213 130 255
0.002646 -0.014226 0.059308 -0.707109 0.050331 -0.705311 255 213 130 255
-0.000000 -0.014304 0.060401 -0.000000 0.071188 -0.997463 255 213 130 255
-0.000000 -0.013772 0.052937 0.000000 -0.071198 0.997462 255 213 130 255
0.002646 -0.013850 0.054030 -0.707108 -0.050339 0.705311 255 213 130 255
0.003742 -0.014038 0.056669 -1.000000 -0.000001 0.000001 255 213 130 255
-0.004080 -0.011494 0.060940 -0.707105 -0.050334 0.705315 255 213 130 255
-0.005770 -0.015273 0.056581 -0.776382 -0.628664 -0.044861 255 213 130 255
-0.004080 -0.015563 0.060650 -0.548983 -0.667742 0.502731 255 213 130 255
-0.004080 -0.014982 0.052511 -0.548983 -0.589586 -0.592457 255 213 130 255
-0.000000 -0.014862 0.050826 0.000000 -0.573401 -0.819275 255 213 130 255
-0.005770 -0.011203 0.056871 -1.000000 0.000001 -0.000002 255 213 130 255
-0.003742 -0.015273 0.056581 0.594379 -0.802145 -0.057248 255 213 130 255
-0.002646 -0.015461 0.059220 0.420286 -0.772231 -0.476465 255 213 130 255
-0.002646 -0.015084 0.053942 0.420288 -0.832065 0.361976 255 213 130 255
-0.002646 -0.014226 0.059308 0.707109 0.050331 -0.705311 255 213 130 255
-0.003742 -0.014038 0.056669 1.000000 -0.000001 0.000001 255 213 130 255
-0.002646 -0.013850 0.054030 0.707108 -0.050339 0.705311 255 213 130 255
-0.000000 -0.016060 0.037798 0.000000 0.990792 0.135390 255 213 130 255
0.002022 -0.016629 0.030123 -0.120746 0.949476 -0.289681 255 213 130 255
-0.000000 -0.017775 0.027108 0.000000 0.710570 -0.703626 255 213 130 255
0.001181 -0.018465 0.043403 -0.395566 0.589328 0.704429 255 213 130 255
-0.000000 -0.019034 0.043225 -0.000000 0.539878 0.841743 255 213 130 255
0.001670 -0.023370 0.044671 -0.043409 -0.216957 0.975215 255 213 130 255
-0.000000 -0.024051 0.044451 0.000000 -0.415760 0.909475 255 213 130 255
0.002572 -0.026675 0.040810 0.256679 -0.912715 0.317911 255 213 130 255
-0.000000 -0.027421 0.040530 0.000001 -0.960295 0.278987 255 213 130 255
-0.000000 -0.027037 0.034294 -0.005864 -0.941828 -0.336044 255 213 130 255
0.003208 -0.025746 0.034767 0.393912 -0.860731 -0.322452 255 213 130 255
-0.000000 -0.021312 0.025979 0.000000 -0.383497 -0.923542 255 213 130 255
0.002791 -0.020450 0.026668 0.438473 -0.152447 -0.885721 255 213 130 255
-0.000000 0.025964 0.003300 0.000000 0.942393 0.334506 255 213 130 255
0.017218 0.020158 -0.000106 0.688079 0.629619 0.360732 255 213 130 255
-0.000000 0.027142 -0.000075 0.000000 0.944148 0.329521 255 213 130 255
0.016481 0.019272 0.002815 0.700825 0.612855 0.365039 255 213 130 255
0.022660 0.001440 -0.000179 0.929993 -0.007874 0.367494 255 213 130 255
0.016481 -0.016027 0.002037 0.680029 -0.583976 0.443319 255 213 130 255
0.021686 0.001416 0.002280 0.929678 -0.009134 0.368261 255 213 130 255
-0.000000 -0.023138 0.002071 0.000000 -0.887583 0.460648 255 213 130 255
0.017218 -0.016826 -0.000134 0.663965 -0.600039 0.446210 255 213 130 255
-0.002022 -0.016629 0.030123 0.120746 0.949476 -0.289681 255 213 130 255
-0.001473 -0.015268 0.038066 0.488122 0.862446 0.133883 255 213 130 255
-0.001181 -0.018465 0.043403 0.395566 0.589327 0.704430 255 213 130 255
-0.001670 -0.023370 0.044671 0.043408 -0.216959 0.975215 255 213 130 255
-0.002572 -0.026675 0.040810 -0.256694 -0.912712 0.317906 255 213 130 255
-0.003208 -0.025746 0.034767 -0.393744 -0.860838 -0.322373 255 213 130 255
-0.000000 -0.027040 0.034335 -0.370185 -0.925548 -0.079522 255 213 130 255
-0.002791 -0.020450 0.026668 -0.438473 -0.152448 -0.885721 255 213 130 255
-0.017218 0.020158 -0.000106 -0.688076 0.629619 0.360736 255 213 130 255
-0.016481 0.019272 0.002815 -0.700825 0.612853 0.365042 255 213 130 255
-0.022660 0.001440 -0.000179 -0.929992 -0.007873 0.367494 255 213 130 255
-0.021686 0.001416 0.002280 -0.929677 -0.009133 0.368262 255 213 130 255
-0.016481 -0.016027 0.002037 -0.680030 -0.583976 0.443319 255 213 130 255
-0.017218 -0.016826 -0.000134 -0.663965 -0.600040 0.446209 255 213 130 255
-0.000000 -0.013772 0.052937 -0.000000 -0.997463 -0.071181 179 175 239 255
0.002646 -0.014226 0.059308 -0.000002 -0.997463 -0.071181 179 175 239 255
-0.000000 -0.014304 0.060401 0.000000 -0.997463 -0.071182 179 175 239 255
0.002646 -0.013850 0.054030 -0.000004 -0.997463 -0.071180 179 175 239 255
0.003742 -0.014038 0.056669 -0.000010 -0.997463 -0.071180 179 175 239 255
-0.002646 -0.014226 0.059308 0.000002 -0.997463 -0.071181 179 175 239 255
-0.002646 -0.013850 0.054030 0.000004 -0.997463 -0.071180 179 175 239 255
-0.003742 -0.014038 0.056669 0.000010 -0.997463 -0.071180 179 175 239 255
-0.004080 -0.010913 0.052802 -0.707105 0.050335 -0.705314 255 213 130 255
0.001473 -0.015268 0.038066 -0.488122 0.862446 0.133883 255 213 130 255
-0.000000 -0.026954 0.034171 1.000000 0.000000 0.000000 255 213 130 255
-0.000000 -0.024255 -0.000079 0.000000 -0.887457 0.460890 255 213 130 255
3 0 1 2
3 0 3 1
3 0 4 3
3 0 5 4
3 2 6 7
3 3 6 1
3 3 8 9
3 5 8 4
3 7 10 11
3 6 12 10
3 8 12 9
3 13 14 8
3 15 11 10
3 15 10 12
3 15 12 14
3 15 14 16
3 17 18 19
3 17 19 20
3 17 20 21
3 17 21 22
3 18 23 19
3 23 20 19
3 20 24 21
3 24 22 21
3 25 26 23
3 23 27 28
3 27 24 28
3 29 30 24
3 31 26 32
3 31 27 26
3 31 29 27
3 31 33 29
3 34 35 36
3 37 36 38
3 39 40 41
3 37 40 39
3 42 43 44
3 44 45 46
3 46 47 48
3 49 50 51
3 51 52 53
3 53 54 55
3 56 42 57
3 57 44 50
3 50 46 52
3 58 59 60
3 60 61 62
3 62 63 64
3 65 63 66
3 67 66 68
3 69 68 70
3 71 72 69
3 73 74 71
3 75 59 73
3 76 61 75
3 76 66 63
3 77 68 66
3 78 69 70
3 79 71 69
3 80 71 81
3 80 75 73
3 82 75 83
3 82 77 76
3 78 77 84
3 85 60 62
3 86 62 64
3 87 64 65
3 88 78 89
3 88 81 79
3 80 90 91
3 92 80 91
3 93 83 92
3 93 84 82
3 89 84 94
3 95 96 42
3 97 57 49
3 48 52 46
3 98 99 100
3 101 102 99
3 47 103 48
3 104 105 106
3 107 108 105
3 54 109 55
3 56 98 95
3 106 101 98
3 105 103 101
3 110 111 112
3 113 112 114
3 115 114 116
3 117 115 116
3 118 119 117
3 120 121 122
3 123 124 121
3 125 126 124
3 110 127 126
3 113 128 127
3 128 119 129
3 129 120 122
3 130 121 131
3 131 124 132
3 124 133 132
3 133 127 134
3 127 135 134
3 135 129 136
3 129 130 136
3 137 114 138
3 139 116 137
3 130 140 141
3 140 132 142
3 142 133 143
3 144 133 134
3 145 134 135
3 145 136 146
3 136 141 146
3 95 100 147
3 97 106 56
3 48 108 54
3 148 149 150
3 148 151 149
3 148 152 151
3 148 153 152
3 148 154 153
3 148 155 154
3 148 156 155
3 148 157 156
3 148 158 157
3 148 159 158
3 148 160 159
3 148 150 160
3 149 161 150
3 149 162 163
3 151 164 162
3 152 165 164
3 153 166 165
3 154 167 166
3 156 167 155
3 157 168 156
3 157 169 170
3 159 169 158
3 160 171 159
3 150 172 160
3 173 163 174
3 174 162 175
3 175 164 176
3 177 164 165
3 178 170 169
3 178 171 179
3 180 171 172
3 173 172 161
3 181 182 183
3 181 183 184
3 181 184 185
3 181 185 186
3 181 186 187
3 181 187 188
3 181 188 189
3 181 189 190
3 181 190 191
3 181 191 192
3 181 192 193
3 181 193 182
3 194 183 182
3 183 195 184
3 184 196 185
3 185 197 186
3 186 198 187
3 187 199 188
3 199 189 188
3 200 190 189
3 190 201 191
3 201 192 191
3 202 193 192
3 203 182 193
3 204 173 174
3 174 195 204
3 175 196 195
3 177 196 176
3 178 205 206
3 178 202 201
3 180 202 179
3 173 203 180
3 207 208 209
3 209 210 211
3 211 212 213
3 207 214 215
3 216 207 209
3 217 209 211
3 218 211 213
3 219 207 220
3 220 221 222
3 216 223 221
3 217 224 223
3 225 220 222
3 218 226 227
3 228 229 230
3 231 229 219
3 232 219 225
3 233 215 234
3 235 208 233
3 236 210 235
3 237 215 214
3 238 213 212
3 239 214 228
3 238 236 240
3 241 242 243
3 244 243 245
3 242 246 247
3 248 242 249
3 250 243 248
3 251 245 250
3 242 252 249
3 221 249 222
3 223 248 221
3 224 250 223
3 249 225 222
3 251 226 253
3 247 254 255
3 256 247 255
3 232 252 256
3 257 233 234
3 241 235 233
3 244 236 235
3 257 237 246
3 253 238 240
3 239 246 237
3 227 224 218
3 258 259 260
3 261 259 262
3 263 264 265
3 263 266 258
3 267 260 268
3 268 261 269
3 270 263 271
3 271 258 267
3 272 267 268
3 273 268 269
3 274 271 275
3 276 271 267
3 277 278 279
3 261 277 279
3 280 264 281
3 282 280 278
3 279 283 284
3 261 284 269
3 280 270 285
3 278 285 283
3 286 283 287
3 273 284 286
3 285 274 288
3 287 285 288
3 289 290 291
3 292 289 293
3 294 293 295
3 296 295 297
3 297 298 296
3 296 298 299
3 298 300 301
3 298 301 299
3 291 301 300
3 302 303 304
3 305 306 303
3 307 306 308
3 309 310 307
3 289 311 312
3 313 289 312
3 314 293 313
3 315 295 314
3 316 317 315
3 315 317 297
3 318 300 298
3 316 318 298
3 291 318 311
3 319 302 304
3 320 321 322
3 321 323 322
3 324 309 323
3 325 326 327
3 328 329 326
3 325 330 331
3 331 330 332
3 2 1 6
3 3 9 6
3 3 4 8
3 5 13 8
3 7 6 10
3 6 9 12
3 8 14 12
3 13 16 14
3 18 25 23
3 23 28 20
3 20 28 24
3 24 30 22
3 25 32 26
3 23 26 27
3 27 29 24
3 29 33 30
3 37 34 36
3 37 38 40
3 42 96 43
3 44 43 45
3 46 45 47
3 49 57 50
3 51 50 52
3 53 52 54
3 56 95 42
3 57 42 44
3 50 44 46
3 67 68 72
3 58 74 59
3 60 59 61
3 62 61 63
3 65 64 63
3 67 65 66
3 69 72 68
3 71 74 72
3 73 59 74
3 75 61 59
3 76 63 61
3 76 77 66
3 77 70 68
3 78 79 69
3 79 81 71
3 80 73 71
3 80 83 75
3 82 76 75
3 82 84 77
3 78 70 77
3 86 85 62
3 87 86 64
3 87 65 67
3 88 79 78
3 88 90 81
3 80 81 90
3 92 83 80
3 93 82 83
3 93 94 84
3 89 78 84
3 95 147 96
3 97 56 57
3 48 54 52
3 98 101 99
3 101 103 102
3 47 102 103
3 104 107 105
3 107 109 108
3 54 108 109
3 56 106 98
3 106 105 101
3 105 108 103
3 123 120 118
3 110 125 111
3 113 110 112
3 115 113 114
3 117 119 115
3 118 120 119
3 120 123 121
3 123 125 124
3 125 110 126
3 110 113 127
3 113 115 128
3 128 115 119
3 129 119 120
3 130 122 121
3 131 121 124
3 124 126 133
3 133 126 127
3 127 128 135
3 135 128 129
3 129 122 130
3 138 114 112
3 137 116 114
3 139 117 116
3 118 117 139
3 140 131 132
3 142 132 133
3 144 143 133
3 145 144 134
3 145 135 136
3 136 130 141
3 95 98 100
3 97 104 106
3 48 103 108
3 149 163 161
3 149 151 162
3 151 152 164
3 152 153 165
3 153 154 166
3 154 155 167
3 156 168 167
3 157 170 168
3 157 158 169
3 159 171 169
3 160 172 171
3 150 161 172
3 173 161 163
3 174 163 162
3 175 162 164
3 177 176 164
3 178 206 170
3 178 169 171
3 180 179 171
3 173 180 172
3 194 204 183
3 183 204 195
3 184 195 196
3 185 196 197
3 186 197 198
3 187 198 199
3 199 200 189
3 200 205 190
3 190 205 201
3 201 202 192
3 202 203 193
3 203 194 182
3 204 194 173
3 174 175 195
3 175 176 196
3 177 197 196
3 178 201 205
3 178 179 202
3 180 203 202
3 173 194 203
3 207 215 208
3 209 208 210
3 211 210 212
3 207 229 214
3 216 220 207
3 217 216 209
3 218 217 211
3 219 229 207
3 220 216 221
3 216 217 223
3 217 218 224
3 225 219 220
3 218 213 226
3 228 214 229
3 231 230 229
3 232 231 219
3 233 208 215
3 235 210 208
3 236 212 210
3 237 234 215
3 238 226 213
3 239 237 214
3 238 212 236
3 241 257 242
3 244 241 243
3 240 244 245
3 242 257 246
3 248 243 242
3 250 245 243
3 251 253 245
3 242 247 252
3 221 248 249
3 223 250 248
3 224 251 250
3 249 252 225
3 251 227 226
3 247 246 254
3 256 252 247
3 232 225 252
3 257 241 233
3 241 244 235
3 244 240 236
3 257 234 237
3 253 226 238
3 239 254 246
3 227 251 224
3 258 266 259
3 261 260 259
3 263 281 264
3 263 265 266
3 267 258 260
3 268 260 261
3 270 281 263
3 271 263 258
3 272 276 267
3 273 272 268
3 274 270 271
3 276 275 271
3 277 282 278
3 261 262 277
3 280 333 264
3 282 333 280
3 279 278 283
3 261 279 284
3 280 281 270
3 278 280 285
3 286 284 283
3 273 269 284
3 285 270 274
3 287 283 285
3 289 334 290
3 292 334 289
3 294 292 293
3 296 294 295
3 298 335 300
3 291 290 301
3 302 305 303
3 305 308 306
3 307 310 306
3 309 336 310
3 289 291 311
3 313 293 289
3 314 295 293
3 315 297 295
3 316 298 317
3 291 300 318
3 319 320 302
3 320 319 321
3 321 324 323
3 324 336 309
3 325 328 326
3 325 327 330
3 253 240 245
