ply
format ascii 1.0
comment Created by Blender 3.6.2 - www.blender.org
element vertex 112
property float x
property float y
property float z
property float nx
property float ny
property float nz
property uchar red
property uchar green
property uchar blue
property uchar alpha
element face 192
property list uchar uint vertex_indices
end_header
0.006076 0.023169 0.017991 0.016491 0.996870 0.077323 255 255 255 255
-0.003133 0.023322 0.017981 0.016491 0.996870 0.077323 255 255 255 255
-0.011264 0.022487 0.030485 0.016491 0.996870 0.077323 255 255 255 255
-0.012814 0.021419 0.044585 0.016491 0.996870 0.077323 255 255 255 255
0.016905 0.021044 0.043076 0.016491 0.996870 0.077323 255 255 255 255
-0.012170 0.020508 0.056191 0.014848 0.996752 0.079151 255 255 255 255
0.017326 0.020076 0.055463 0.016491 0.996870 0.077323 255 255 255 255
-0.000824 0.019534 0.066328 0.014173 0.996702 0.079901 255 255 255 255
0.007926 0.019408 0.066079 0.016491 0.996870 0.077323 255 255 255 255
0.012667 0.019539 0.063378 0.016491 0.996870 0.077323 255 255 255 255
0.014781 0.022170 0.029010 0.016491 0.996870 0.077323 255 255 255 255
-0.008154 0.023226 0.020285 0.016491 0.996870 0.077324 255 255 255 255
0.010770 0.022963 0.019649 0.016491 0.996870 0.077323 255 255 255 255
-0.006698 0.019768 0.063798 -0.002918 0.995095 0.098879 255 255 255 255
-0.018654 0.007851 0.066689 0.927187 -0.341329 0.154330 0 0 0 255
-0.019986 0.001902 0.067416 0.680630 0.148462 0.717428 0 0 0 255
-0.023309 0.008426 0.060264 0.151144 -0.895121 0.419421 0 0 0 255
-0.004530 0.020993 0.012316 -0.127147 -0.614327 -0.778740 0 0 0 255
0.001649 0.020894 0.012264 -0.011633 -0.648418 -0.761196 0 0 0 255
-0.019264 0.019955 0.028838 -0.619470 -0.767880 0.163145 0 0 0 255
0.007828 0.020789 0.012300 0.104894 -0.618143 -0.779036 0 0 0 255
0.022562 0.019267 0.028784 0.594303 -0.787839 0.161597 0 0 0 255
0.013676 0.020549 0.014152 -0.064863 -0.828839 -0.555715 0 0 0 255
0.017887 0.024215 0.005201 -0.579744 -0.267753 -0.769548 0 0 0 255
0.024971 0.019509 0.025146 0.621151 -0.735823 0.269695 0 0 0 255
0.022838 0.025297 0.003780 -0.076786 -0.016917 -0.996904 0 0 0 255
0.031403 0.020128 0.009739 0.635025 -0.739748 -0.222522 0 0 0 255
-0.023081 0.026605 0.003901 0.087311 0.087902 -0.992295 0 0 0 255
-0.018812 0.023750 0.005050 0.403206 -0.401113 -0.822516 0 0 0 255
-0.033006 0.023884 0.009348 -0.842203 -0.493598 -0.216923 0 0 0 255
-0.010378 0.020945 0.014183 0.054612 -0.796958 -0.601561 0 0 0 255
-0.021673 0.020276 0.025206 -0.598211 -0.740948 0.305190 0 0 0 255
-0.031360 0.026580 0.006499 -0.723286 0.033412 -0.689740 0 0 0 255
0.028322 0.024620 0.004449 0.368679 -0.064651 -0.927306 0 0 0 255
0.030689 0.022828 0.006530 0.675587 -0.300905 -0.673081 0 0 0 255
-0.028487 0.027727 0.004610 -0.349651 0.183841 -0.918666 0 0 0 255
0.020811 0.018146 0.043607 0.672702 -0.738813 -0.040338 0 0 0 255
0.021652 0.017176 0.055932 0.469273 -0.693889 -0.546169 0 0 0 255
-0.017513 0.018776 0.043655 -0.696580 -0.716269 -0.041646 0 0 0 255
0.026607 0.008559 0.060200 0.160669 -0.968959 0.187892 0 0 0 255
0.023194 0.000622 0.062355 -0.480674 0.048952 -0.875532 0 0 0 255
0.022993 0.005265 0.066947 -0.800087 0.095491 0.592234 0 0 0 255
0.016720 -0.007082 0.064315 -0.676430 0.110766 -0.728130 0 0 0 255
0.018979 -0.004140 0.067253 -0.545014 0.574950 0.610240 0 0 0 255
0.021952 0.008137 0.066637 -0.852215 -0.428797 0.299771 0 0 0 255
-0.018354 0.017834 0.055219 -0.538653 -0.671038 -0.509471 0 0 0 255
0.001649 0.016065 0.074521 -0.010434 -0.716281 0.697734 0 0 0 255
0.012703 -0.010929 0.070060 -0.929402 -0.195927 0.312769 0 0 0 255
0.014622 -0.008733 0.069840 -0.441341 0.609124 0.658928 0 0 0 255
0.016191 0.016080 0.071229 0.189967 -0.673527 0.714334 0 0 0 255
-0.013808 -0.007304 0.061322 0.681957 0.379514 -0.625223 0 0 0 255
-0.018039 -0.002330 0.062836 0.563754 0.382128 -0.732230 0 0 0 255
-0.015411 -0.006067 0.065598 0.575425 0.274177 0.770528 0 0 0 255
-0.012893 0.016558 0.071266 -0.209908 -0.656241 0.724767 0 0 0 255
-0.012104 -0.012421 0.065518 0.527226 0.088579 0.845096 0 0 0 255
-0.010682 -0.014684 0.064333 0.864011 -0.496565 0.083115 0 0 0 255
-0.018608 0.010625 0.066905 -0.685379 0.234888 0.689263 0 0 0 255
-0.023263 0.011200 0.060480 -0.954496 0.298218 -0.001492 0 0 0 255
-0.022411 0.000554 0.067632 -0.702807 -0.195300 0.684047 0 0 0 255
-0.004484 0.023767 0.012532 -0.104872 0.731039 -0.674228 0 0 0 255
-0.008154 0.023226 0.020285 0.016491 0.996870 0.077323 0 0 0 255
0.001695 0.023669 0.012480 0.011636 0.758196 -0.651922 0 0 0 255
0.010770 0.022963 0.019649 0.016490 0.996870 0.077324 0 0 0 255
0.007874 0.023564 0.012516 0.127130 0.727224 -0.674524 0 0 0 255
0.013722 0.023323 0.014368 -0.283209 0.902047 -0.325735 0 0 0 255
0.025017 0.022284 0.025362 0.643409 0.638939 0.421642 0 0 0 255
0.017933 0.026349 0.006987 -0.494204 0.843117 -0.211933 0 0 0 255
0.031449 0.022262 0.011525 0.873715 0.375677 0.309013 0 0 0 255
0.022884 0.027431 0.005566 -0.055212 0.985914 -0.157874 0 0 0 255
-0.003134 0.023322 0.017981 0.016491 0.996870 0.077324 0 0 0 255
0.006076 0.023169 0.017991 0.016491 0.996870 0.077323 0 0 0 255
0.022608 0.022041 0.029000 0.619541 0.733487 0.279581 0 0 0 255
-0.022445 0.028380 0.005949 0.386406 0.921827 -0.030412 0 0 0 255
-0.032369 0.025658 0.011396 -0.739212 0.474710 0.477719 0 0 0 255
-0.018175 0.025524 0.007097 0.531038 0.803477 -0.269115 0 0 0 255
-0.021627 0.023051 0.025422 -0.549781 0.679204 0.486234 0 0 0 255
-0.010332 0.023719 0.014399 0.169728 0.874751 -0.453876 0 0 0 255
-0.030724 0.028354 0.008546 -0.425227 0.864321 0.268571 0 0 0 255
-0.019218 0.022729 0.029053 -0.594376 0.753448 0.281129 0 0 0 255
0.030734 0.024962 0.008316 0.697039 0.698302 0.162821 0 0 0 255
0.028368 0.026754 0.006235 0.389707 0.914579 -0.108044 0 0 0 255
-0.027850 0.029502 0.006657 -0.057559 0.998130 0.020557 0 0 0 255
0.016905 0.021044 0.043076 0.016491 0.996870 0.077323 0 0 0 255
0.020857 0.020921 0.043822 0.696735 0.713675 0.072307 0 0 0 255
0.017326 0.020076 0.055463 0.016491 0.996870 0.077323 0 0 0 255
0.021698 0.019951 0.056148 0.672062 0.740000 0.027043 0 0 0 255
-0.017467 0.021551 0.043871 -0.671705 0.737079 0.074349 0 0 0 255
-0.011264 0.022487 0.030485 0.016491 0.996870 0.077323 0 0 0 255
0.026653 0.011333 0.060416 0.944800 0.316323 -0.085392 0 0 0 255
0.025767 0.005171 0.067163 0.663130 0.042422 0.747301 0 0 0 255
0.025967 0.000529 0.062571 0.782908 -0.394082 -0.481408 0 0 0 255
0.021072 -0.005962 0.067469 0.674283 -0.327664 0.661799 0 0 0 255
0.018814 -0.008903 0.064531 0.302799 -0.717888 -0.626857 0 0 0 255
0.021998 0.010911 0.066853 0.654189 0.265010 0.708383 0 0 0 255
-0.018308 0.020609 0.055435 -0.662003 0.748551 0.037725 0 0 0 255
-0.012814 0.021419 0.044585 0.014661 0.996741 0.079319 0 0 0 255
0.001695 0.018840 0.074736 0.010311 0.600894 0.799262 0 0 0 255
0.007926 0.019408 0.066079 0.016491 0.996870 0.077324 0 0 0 255
-0.000824 0.019534 0.066328 0.009167 0.996792 0.079511 0 0 0 255
0.016715 -0.010555 0.070056 0.571677 -0.270948 0.774450 0 0 0 255
0.014796 -0.012750 0.070275 -0.109193 -0.910342 0.399192 0 0 0 255
0.016237 0.018855 0.071445 0.419908 0.609960 0.672031 0 0 0 255
-0.016233 -0.008554 0.060775 -0.396458 -0.226965 -0.889555 0 0 0 255
-0.017836 -0.007318 0.065051 -0.646548 -0.523878 0.554552 0 0 0 255
-0.020465 -0.003678 0.063052 -0.737687 -0.360938 -0.570563 0 0 0 255
-0.012847 0.019333 0.071482 -0.413617 0.621870 0.664981 0 0 0 255
-0.014529 -0.013672 0.064971 -0.630769 -0.506896 0.587526 0 0 0 255
-0.013107 -0.015935 0.063786 -0.090166 -0.987210 -0.131476 0 0 0 255
0.014781 0.022170 0.029010 0.016491 0.996870 0.077323 0 0 0 255
-0.012170 0.020508 0.056191 0.005596 0.996147 0.087524 0 0 0 255
0.012667 0.019539 0.063378 0.016490 0.996870 0.077323 0 0 0 255
-0.006698 0.019768 0.063798 0.020621 0.997341 0.069897 0 0 0 255
3 0 1 2
3 3 4 2
3 5 6 3
3 7 8 9
3 4 3 6
3 10 2 4
3 11 2 1
3 2 10 0
3 10 12 0
3 9 6 7
3 6 5 7
3 5 13 7
3 14 15 16
3 17 18 19
3 18 20 21
3 22 23 24
3 23 25 26
3 24 23 26
3 18 21 19
3 20 22 21
3 27 28 29
3 28 30 31
3 27 29 32
3 30 17 19
3 25 33 34
3 34 26 25
3 22 24 21
3 35 27 32
3 21 36 19
3 31 29 28
3 19 31 30
3 36 37 38
3 19 36 38
3 39 40 41
3 40 42 43
3 37 39 44
3 38 37 45
3 45 37 46
3 40 43 41
3 42 47 48
3 43 42 48
3 46 37 49
3 50 51 52
3 51 16 15
3 16 45 14
3 14 45 53
3 44 49 37
3 39 41 44
3 51 15 52
3 54 55 50
3 52 54 50
3 46 53 45
3 56 57 58
3 59 60 61
3 62 63 61
3 64 65 66
3 66 67 68
3 65 67 66
3 61 69 70
3 63 71 64
3 72 73 74
3 74 75 76
3 72 77 73
3 76 78 59
3 68 79 80
3 79 68 67
3 64 71 65
3 81 77 72
3 71 82 83
3 75 74 73
3 78 76 75
3 83 84 85
3 86 87 78
3 88 89 90
3 90 91 92
3 85 93 88
3 94 95 86
3 96 97 98
3 90 89 91
3 92 99 100
3 91 99 92
3 96 101 85
3 102 103 104
3 104 58 57
3 57 56 94
3 56 105 94
3 93 85 101
3 88 93 89
3 104 103 58
3 106 102 107
3 103 102 106
3 96 94 105
3 35 72 27
3 85 39 37
3 56 15 14
3 32 81 35
3 88 40 39
3 53 56 14
3 29 77 32
3 90 42 40
3 17 61 18
3 61 20 18
3 31 73 29
3 92 47 42
3 46 105 53
3 63 22 20
3 19 75 31
3 47 99 48
3 22 66 23
3 38 78 19
3 99 43 48
3 23 68 25
3 45 86 38
3 43 89 41
3 68 33 25
3 16 94 45
3 41 93 44
3 80 34 33
3 51 57 16
3 93 49 44
3 79 26 34
3 50 104 51
3 101 46 49
3 67 24 26
3 55 102 50
3 30 59 17
3 65 21 24
3 106 55 54
3 74 30 28
3 71 36 21
3 52 106 54
3 72 28 27
3 83 37 36
3 58 52 15
3 60 78 87
3 108 71 62
3 59 78 60
3 62 71 63
3 61 60 69
3 70 62 61
3 71 108 82
3 83 82 84
3 86 95 87
3 94 109 95
3 85 84 110
3 96 85 110
3 111 109 94
3 111 94 96
3 96 110 97
3 98 111 96
3 35 81 72
3 85 88 39
3 56 58 15
3 32 77 81
3 88 90 40
3 53 105 56
3 29 73 77
3 90 92 42
3 17 59 61
3 61 63 20
3 31 75 73
3 92 100 47
3 46 96 105
3 63 64 22
3 19 78 75
3 47 100 99
3 22 64 66
3 38 86 78
3 99 91 43
3 23 66 68
3 45 94 86
3 43 91 89
3 68 80 33
3 16 57 94
3 41 89 93
3 80 79 34
3 51 104 57
3 93 101 49
3 79 67 26
3 50 102 104
3 101 96 46
3 67 65 24
3 55 107 102
3 30 76 59
3 65 71 21
3 106 107 55
3 74 76 30
3 71 83 36
3 52 103 106
3 72 74 28
3 83 85 37
3 58 103 52
