ply
format ascii 1.0
comment Created by Blender 3.6.2 - www.blender.org
element vertex 10
property float x
property float y
property float z
property float nx
property float ny
property float nz
element face 10
property list uchar uint vertex_indices
end_header
0.000015 0.151706 0.007611 0.000000 0.976053 0.217534
0.234312 0.076123 -0.417048 0.928281 0.301617 0.217534
0.000015 0.246350 -0.417048 0.000000 0.976053 0.217534
0.144300 0.046876 0.007611 0.928281 0.301617 0.217534
0.144819 -0.199311 -0.417048 0.573709 -0.789643 0.217534
0.089188 -0.122742 0.007611 0.573709 -0.789643 0.217534
-0.144789 -0.199311 -0.417048 -0.573709 -0.789643 0.217534
-0.089159 -0.122742 0.007611 -0.573709 -0.789643 0.217534
-0.234283 0.076123 -0.417048 -0.928281 0.301617 0.217534
-0.144271 0.046876 0.007611 -0.928281 0.301617 0.217534
3 0 1 2
3 3 4 1
3 5 6 4
3 7 8 6
3 9 2 8
3 0 3 1
3 3 5 4
3 5 7 6
3 7 9 8
3 9 0 2
