ply
format ascii 1.0
comment Created by Blender 3.6.2 - www.blender.org
element vertex 64
property float x
property float y
property float z
property float nx
property float ny
property float nz
property uchar red
property uchar green
property uchar blue
property uchar alpha
element face 124
property list uchar uint vertex_indices
end_header
0.001142 0.000007 0.000027 0.759291 -0.650717 0.006743 184 134 85 255
0.000983 0.002387 0.000568 0.864083 0.075709 0.497622 184 134 85 255
0.000991 0.000013 0.000594 0.658063 -0.646877 0.385360 184 134 85 255
-0.000000 0.002365 -0.001132 -0.000780 0.056463 -0.998404 184 134 85 255
0.000575 -0.000005 -0.000954 0.380371 -0.659119 -0.648753 184 134 85 255
0.000008 -0.000009 -0.001106 0.001743 -0.661499 -0.749944 184 134 85 255
-0.000566 0.002386 0.000984 -0.498651 0.075249 0.863530 184 134 85 255
-0.000973 0.000006 0.000595 -0.653393 -0.651169 0.386078 184 134 85 255
-0.000558 0.000012 0.001010 -0.376136 -0.647254 0.663011 184 134 85 255
-0.001126 -0.000000 0.000029 -0.755014 -0.655665 0.007617 184 134 85 255
-0.000982 0.002368 -0.000564 -0.864527 0.059110 -0.499098 184 134 85 255
-0.000974 -0.000006 -0.000538 -0.653746 -0.659544 -0.370969 184 134 85 255
0.000568 0.002390 0.000984 0.499089 0.078514 0.862986 184 134 85 255
0.000576 0.000016 0.001010 0.381051 -0.644773 0.662622 184 134 85 255
0.000982 0.002374 -0.000566 0.863569 0.064764 -0.500054 184 134 85 255
0.000990 0.000000 -0.000540 0.657636 -0.655232 -0.371735 184 134 85 255
-0.001133 0.002374 0.000003 -0.997941 0.064137 -0.000181 184 134 85 255
-0.000559 -0.000009 -0.000954 -0.376746 -0.661648 -0.648294 184 134 85 255
0.000009 0.000016 0.001162 0.002509 -0.644825 0.764326 184 134 85 255
-0.000008 0.005058 0.000740 -0.000152 0.192988 0.981201 184 134 85 255
0.000001 0.002390 0.001136 0.000276 0.078352 0.996926 184 134 85 255
0.001135 0.002381 0.000001 0.997499 0.070671 -0.001276 184 134 85 255
0.000656 0.005056 0.000356 0.851125 0.190526 0.489169 184 134 85 255
-0.000009 0.005041 -0.000794 -0.001125 0.171424 -0.985197 184 134 85 255
0.000567 0.002368 -0.000980 0.498150 0.059564 -0.865043 184 134 85 255
-0.000672 0.005051 0.000357 -0.851889 0.184832 0.490023 184 134 85 255
-0.000981 0.002380 0.000569 -0.864004 0.070046 0.498589 184 134 85 255
-0.000673 0.005043 -0.000410 -0.852347 0.174171 -0.493122 184 134 85 255
0.000376 0.005058 0.000637 0.491490 0.193169 0.849190 184 134 85 255
0.000375 0.005043 -0.000692 0.490632 0.174484 -0.853719 184 134 85 255
-0.000567 0.002365 -0.000980 -0.499528 0.056306 -0.864466 184 134 85 255
0.000759 0.005052 -0.000028 0.982626 0.185580 -0.002503 184 134 85 255
-0.000392 0.005041 -0.000691 -0.492751 0.171263 -0.853150 184 134 85 255
-0.000014 0.006618 -0.000439 0.007361 0.467197 -0.884122 184 134 85 255
-0.000210 0.006625 0.000297 -0.432645 0.483623 0.760873 184 134 85 255
-0.000391 0.005055 0.000637 -0.491838 0.189931 0.849719 184 134 85 255
0.000328 0.006623 0.000152 0.766280 0.482787 0.423948 184 134 85 255
-0.000775 0.005047 -0.000027 -0.983820 0.179151 -0.001453 184 134 85 255
-0.000355 0.006616 -0.000241 -0.769402 0.468276 -0.434439 184 134 85 255
0.000183 0.006619 -0.000386 0.429471 0.469632 -0.771363 184 134 85 255
0.000656 0.005047 -0.000411 0.850690 0.179633 -0.494024 184 134 85 255
-0.000407 0.006618 -0.000044 -0.881248 0.472370 -0.016385 184 134 85 255
-0.000013 0.006626 0.000349 -0.010540 0.486440 0.873650 184 134 85 255
0.000381 0.006621 -0.000045 0.878124 0.478398 0.005878 184 134 85 255
-0.000354 0.006632 0.000152 -0.757623 0.492472 0.428343 184 134 85 255
-0.000298 0.006722 -0.000046 -0.487433 0.872333 -0.038002 184 134 85 255
0.000129 0.006723 -0.000292 0.217260 0.871931 -0.438787 184 134 85 255
0.000328 0.006630 -0.000242 0.754410 0.487851 -0.439165 184 134 85 255
0.000233 0.006725 0.000097 0.431136 0.878057 0.207699 184 134 85 255
0.000184 0.006636 0.000296 0.436909 0.500006 0.747733 184 134 85 255
-0.000260 0.006721 -0.000188 -0.436835 0.870454 -0.226903 184 134 85 255
-0.000156 0.006727 0.000201 -0.223121 0.879889 0.419537 184 134 85 255
-0.000014 0.006722 -0.000330 0.020292 0.870755 -0.491297 184 134 85 255
-0.000014 0.006728 0.000239 -0.026109 0.881195 0.472031 184 134 85 255
-0.000211 0.006627 -0.000386 -0.440126 0.480546 -0.758528 184 134 85 255
-0.000156 0.006730 -0.000292 -0.239788 0.881671 -0.406397 184 134 85 255
-0.000083 0.006750 -0.000176 -0.049878 0.994847 -0.088267 184 134 85 255
-0.000139 0.006752 0.000032 -0.082229 0.996075 0.032762 184 134 85 255
-0.000260 0.006734 0.000097 -0.406215 0.887961 0.215671 184 134 85 255
0.000111 0.006751 -0.000124 0.075653 0.995640 -0.054577 184 134 85 255
0.000056 0.006753 0.000084 0.043464 0.996839 0.066500 184 134 85 255
0.000233 0.006733 -0.000188 0.400477 0.885645 -0.235056 184 134 85 255
0.000271 0.006724 -0.000046 0.481709 0.876128 0.018886 184 134 85 255
0.000129 0.006736 0.000201 0.234196 0.891813 0.387068 184 134 85 255
3 0 1 2
3 3 4 5
3 6 7 8
3 9 10 11
3 2 12 13
3 4 14 15
3 7 16 9
3 10 17 11
3 12 18 13
3 14 0 15
3 17 3 5
3 18 6 8
3 19 6 20
3 21 22 1
3 23 24 3
3 6 25 26
3 16 27 10
3 1 28 12
3 29 14 24
3 25 16 26
3 27 30 10
3 28 20 12
3 14 31 21
3 32 3 30
3 32 33 23
3 19 34 35
3 31 36 22
3 33 29 23
3 34 25 35
3 37 38 27
3 36 28 22
3 39 40 29
3 25 41 37
3 38 32 27
3 28 42 19
3 40 43 31
3 44 45 41
3 46 47 39
3 48 49 36
3 41 50 38
3 51 44 34
3 52 39 33
3 43 48 36
3 53 34 42
3 54 52 33
3 55 56 52
3 56 45 57
3 57 58 51
3 52 59 46
3 59 57 60
3 57 53 60
3 61 59 62
3 59 48 62
3 60 63 48
3 50 54 38
3 49 53 42
3 47 62 43
3 0 13 9
3 0 21 1
3 3 24 4
3 6 26 7
3 9 16 10
3 2 1 12
3 4 24 14
3 7 26 16
3 10 30 17
3 12 20 18
3 14 21 0
3 17 30 3
3 18 20 6
3 19 35 6
3 21 31 22
3 23 29 24
3 6 35 25
3 16 37 27
3 1 22 28
3 29 40 14
3 25 37 16
3 27 32 30
3 28 19 20
3 14 40 31
3 32 23 3
3 32 54 33
3 19 42 34
3 31 43 36
3 33 39 29
3 34 44 25
3 37 41 38
3 36 49 28
3 39 47 40
3 25 44 41
3 38 54 32
3 28 49 42
3 40 47 43
3 44 58 45
3 46 61 47
3 48 63 49
3 41 45 50
3 51 58 44
3 52 46 39
3 43 62 48
3 53 51 34
3 54 55 52
3 55 50 56
3 56 50 45
3 57 45 58
3 52 56 59
3 59 56 57
3 57 51 53
3 61 46 59
3 59 60 48
3 60 53 63
3 50 55 54
3 49 63 53
3 47 61 62
3 9 11 17
3 17 5 9
3 5 4 9
3 4 15 0
3 0 2 13
3 13 18 8
3 8 7 13
3 7 9 13
3 4 0 9
