ply
format ascii 1.0
comment Created by Blender 3.6.2 - www.blender.org
element vertex 20
property float x
property float y
property float z
property float nx
property float ny
property float nz
property uchar red
property uchar green
property uchar blue
property uchar alpha
element face 20
property list uchar uint vertex_indices
end_header
0.000000 0.005814 0.004185 0.000000 0.971439 -0.237289 124 187 255 255
0.002875 0.003956 -0.000178 0.572372 0.787803 -0.227503 124 187 255 255
-0.000000 0.004890 -0.000178 -0.000000 0.978340 -0.207004 124 187 255 255
0.005529 0.001796 0.004185 0.923893 0.300191 -0.237290 124 187 255 255
0.004651 0.001511 -0.000178 0.930456 0.302324 -0.207005 124 187 255 255
0.004651 -0.001511 -0.000178 0.926117 -0.300914 -0.227503 124 187 255 255
0.003417 -0.004703 0.004185 0.570998 -0.785910 -0.237289 124 187 255 255
0.002875 -0.003956 -0.000178 0.575054 -0.791494 -0.207004 124 187 255 255
-0.000000 -0.004890 -0.000178 -0.000000 -0.973778 -0.227501 124 187 255 255
-0.003417 -0.004703 0.004185 -0.570997 -0.785911 -0.237288 124 187 255 255
-0.002875 -0.003956 -0.000178 -0.575054 -0.791494 -0.207002 124 187 255 255
-0.004651 -0.001511 -0.000178 -0.926118 -0.300914 -0.227501 124 187 255 255
-0.005529 0.001796 0.004185 -0.923894 0.300192 -0.237288 124 187 255 255
-0.004651 0.001511 -0.000178 -0.930457 0.302324 -0.207002 124 187 255 255
-0.002875 0.003956 -0.000178 -0.572372 0.787803 -0.227501 124 187 255 255
0.004990 0.006868 0.013504 0.568447 0.782400 -0.254397 124 187 255 255
0.008074 -0.002623 0.013504 0.919767 -0.298850 -0.254397 124 187 255 255
0.000000 -0.008490 0.013504 0.000000 -0.967100 -0.254397 124 187 255 255
-0.008074 -0.002623 0.013504 -0.919767 -0.298850 -0.254396 124 187 255 255
-0.004990 0.006868 0.013504 -0.568447 0.782400 -0.254397 124 187 255 255
3 0 1 2
3 1 3 4
3 3 5 4
3 5 6 7
3 6 8 7
3 8 9 10
3 9 11 10
3 11 12 13
3 12 14 13
3 14 0 2
3 0 15 1
3 1 15 3
3 3 16 5
3 5 16 6
3 6 17 8
3 8 17 9
3 9 18 11
3 11 18 12
3 12 19 14
3 14 19 0
