ply
format ascii 1.0
comment Created by Blender 3.6.2 - www.blender.org
element vertex 80
property float x
property float y
property float z
property float nx
property float ny
property float nz
property uchar red
property uchar green
property uchar blue
property uchar alpha
element face 110
property list uchar uint vertex_indices
end_header
-0.034641 -0.034641 0.009413 0.000000 0.000000 1.000000 70 108 144 255
0.034641 -0.034641 0.009413 0.000000 0.000000 1.000000 70 108 144 255
0.034641 0.034641 0.009413 0.000000 0.000000 1.000000 70 108 144 255
0.000000 0.056978 0.012636 -0.000576 0.854842 0.518887 255 255 255 255
0.024510 0.059173 0.001185 0.325619 0.786115 0.525353 255 255 255 255
0.000000 0.064048 0.001185 -0.000000 0.850884 0.525353 255 255 255 255
0.021804 0.052640 0.012636 0.310540 0.749710 0.584380 255 255 255 255
0.045289 0.045289 0.001185 0.601666 0.601666 0.525353 255 255 255 255
0.040289 0.040289 0.012636 0.600382 0.603063 0.525221 255 255 255 255
0.059173 0.024510 0.001185 0.786115 0.325619 0.525353 255 255 255 255
0.052640 0.021804 0.012636 0.761675 0.315496 0.565962 255 255 255 255
0.064048 -0.000000 0.001185 0.850884 -0.000000 0.525353 255 255 255 255
0.056978 0.000000 0.012636 0.861658 -0.004483 0.507469 255 255 255 255
0.059173 -0.024510 0.001185 0.786115 -0.325619 0.525353 255 255 255 255
0.052640 -0.021804 0.012636 0.727944 -0.301524 0.615776 255 255 255 255
0.045289 -0.045289 0.001185 0.601666 -0.601666 0.525353 255 255 255 255
0.040289 -0.040289 0.012636 0.608953 -0.609829 0.507232 255 255 255 255
0.024510 -0.059173 0.001185 0.325619 -0.786115 0.525353 255 255 255 255
0.000000 -0.056978 0.012636 -0.000489 -0.855381 0.517999 255 255 255 255
0.000000 -0.064048 0.001185 -0.000000 -0.850884 0.525353 255 255 255 255
-0.021804 -0.052640 0.012636 -0.297320 -0.717793 0.629583 255 255 255 255
-0.024510 -0.059173 0.001185 -0.325619 -0.786114 0.525353 255 255 255 255
-0.045289 -0.045289 0.001185 -0.601666 -0.601666 0.525353 255 255 255 255
-0.040289 -0.040289 0.012636 -0.576252 -0.586248 0.569426 255 255 255 255
-0.059173 -0.024510 0.001185 -0.786115 -0.325619 0.525353 255 255 255 255
-0.052640 -0.021804 0.012636 -0.791515 -0.323666 0.518406 255 255 255 255
-0.064048 -0.000000 0.001185 -0.850884 -0.000000 0.525353 255 255 255 255
-0.056978 0.000000 0.012636 -0.796419 -0.000000 0.604745 255 255 255 255
-0.059173 0.024510 0.001185 -0.786115 0.325619 0.525353 255 255 255 255
-0.052640 0.021804 0.012636 -0.803107 0.323581 0.500314 255 255 255 255
-0.045289 0.045289 0.001185 -0.601666 0.601666 0.525353 255 255 255 255
-0.040289 0.040289 0.012636 -0.595181 0.606424 0.527265 255 255 255 255
-0.024510 0.059173 0.001185 -0.325619 0.786115 0.525353 255 255 255 255
-0.021804 0.052640 0.012636 -0.308855 0.745642 0.590446 255 255 255 255
0.020478 0.049437 0.016701 0.012856 0.026847 0.999557 255 255 255 255
0.000000 0.053511 0.018945 -0.002908 0.072736 0.997347 255 255 255 255
0.049437 0.020478 0.017128 0.038933 0.020859 0.999024 255 255 255 255
0.037838 0.037838 0.018599 0.042233 0.055874 0.997544 255 255 255 255
0.049437 -0.020478 0.016059 0.005530 -0.001424 0.999984 255 255 255 255
0.053511 0.000000 0.019495 0.077980 -0.023024 0.996689 255 255 255 255
0.020478 -0.049437 0.015914 -0.002418 0.000539 0.999997 255 255 255 255
0.037838 -0.037838 0.019684 0.052471 -0.056770 0.997007 255 255 255 255
0.021804 -0.052640 0.012636 0.299176 -0.722274 0.623550 255 255 255 255
-0.020478 -0.049437 0.015804 -0.004282 0.011622 0.999923 255 255 255 255
0.000000 -0.053511 0.019197 -0.002332 -0.072686 0.997352 255 255 255 255
-0.037838 -0.037838 0.017162 -0.000318 -0.058129 0.998309 255 255 255 255
-0.053511 0.000000 0.016274 -0.014453 -0.003084 0.999891 255 255 255 255
-0.049437 -0.020478 0.018944 -0.074996 -0.009771 0.997136 255 255 255 255
-0.037838 0.037838 0.018374 -0.014371 0.083800 0.996379 255 255 255 255
-0.049437 0.020478 0.019648 -0.093377 -0.011242 0.995567 255 255 255 255
-0.020478 0.049437 0.016569 -0.011890 0.021895 0.999690 255 255 255 255
0.000000 0.048989 0.009413 -0.001169 -0.891143 0.453720 255 255 255 255
0.034641 0.034641 0.009413 -0.630406 -0.625033 0.460351 255 255 255 255
0.018747 0.045260 0.009413 -0.325186 -0.785067 0.527184 255 255 255 255
0.048989 0.000000 0.009413 -0.898102 -0.009221 0.439691 255 255 255 255
0.045260 0.018747 0.009413 -0.797065 -0.330155 0.505653 255 255 255 255
0.034641 -0.034641 0.009413 -0.635406 0.633583 0.441397 255 255 255 255
0.045260 -0.018747 0.009413 -0.763872 0.316406 0.562482 255 255 255 255
0.000000 -0.048989 0.009413 -0.001007 0.890303 0.455368 255 255 255 255
0.018747 -0.045260 0.009413 -0.314166 0.758463 0.570993 255 255 255 255
-0.034641 -0.034641 0.009413 0.616852 0.597544 0.512283 255 255 255 255
-0.018747 -0.045260 0.009413 0.312407 0.754216 0.577546 255 255 255 255
-0.045260 -0.018747 0.009413 0.820689 0.348433 0.452839 255 255 255 255
-0.045260 0.018747 0.009413 0.828164 -0.361630 0.428216 255 255 255 255
-0.048989 0.000000 0.009413 0.834994 0.000000 0.550259 255 255 255 255
-0.034641 0.034641 0.009413 0.638627 -0.616372 0.460695 255 255 255 255
-0.018747 0.045260 0.009413 0.323521 -0.781049 0.534132 255 255 255 255
0.018747 0.045260 0.009413 0.000000 0.000000 1.000000 70 108 144 255
0.000000 0.048989 0.009413 0.000000 0.000000 1.000000 70 108 144 255
-0.018747 0.045260 0.009413 0.000000 0.000000 1.000000 70 108 144 255
-0.034641 0.034641 0.009413 0.000000 0.000000 1.000000 70 108 144 255
-0.045260 0.018747 0.009413 0.000000 0.000000 1.000000 70 108 144 255
-0.048989 0.000000 0.009413 0.000000 0.000000 1.000000 70 108 144 255
-0.045260 -0.018747 0.009413 0.000000 0.000000 1.000000 70 108 144 255
-0.018747 -0.045260 0.009413 0.000000 0.000000 1.000000 70 108 144 255
0.000000 -0.048989 0.009413 0.000000 0.000000 1.000000 70 108 144 255
0.018747 -0.045260 0.009413 0.000000 0.000000 1.000000 70 108 144 255
0.045260 -0.018747 0.009413 0.000000 0.000000 1.000000 70 108 144 255
0.048989 0.000000 0.009413 0.000000 0.000000 1.000000 70 108 144 255
0.045260 0.018747 0.009413 0.000000 0.000000 1.000000 70 108 144 255
3 0 1 2
3 3 4 5
3 6 7 4
3 8 9 7
3 10 11 9
3 12 13 11
3 14 15 13
3 16 17 15
3 17 18 19
3 19 20 21
3 20 22 21
3 23 24 22
3 25 26 24
3 27 28 26
3 29 30 28
3 31 32 30
3 33 5 32
3 34 3 35
3 34 8 6
3 36 8 37
3 36 12 10
3 38 12 39
3 38 16 14
3 40 16 41
3 40 18 42
3 43 18 44
3 43 23 20
3 45 25 23
3 46 25 47
3 46 29 27
3 48 29 49
3 50 31 48
3 50 3 33
3 51 34 35
3 52 34 53
3 52 36 37
3 54 36 55
3 54 38 39
3 56 38 57
3 56 40 41
3 58 40 59
3 58 43 44
3 60 43 61
3 62 45 60
3 62 46 47
3 63 46 64
3 63 48 49
3 65 50 48
3 51 50 66
3 2 67 68
3 68 69 70
3 70 71 72
3 72 73 0
3 0 74 75
3 75 76 1
3 1 77 78
3 78 79 2
3 2 68 70
3 70 72 0
3 0 75 1
3 1 78 2
3 2 70 0
3 3 6 4
3 6 8 7
3 8 10 9
3 10 12 11
3 12 14 13
3 14 16 15
3 16 42 17
3 17 42 18
3 19 18 20
3 20 23 22
3 23 25 24
3 25 27 26
3 27 29 28
3 29 31 30
3 31 33 32
3 33 3 5
3 34 6 3
3 34 37 8
3 36 10 8
3 36 39 12
3 38 14 12
3 38 41 16
3 40 42 16
3 40 44 18
3 43 20 18
3 43 45 23
3 45 47 25
3 46 27 25
3 46 49 29
3 48 31 29
3 50 33 31
3 50 35 3
3 51 53 34
3 52 37 34
3 52 55 36
3 54 39 36
3 54 57 38
3 56 41 38
3 56 59 40
3 58 44 40
3 58 61 43
3 60 45 43
3 62 47 45
3 62 64 46
3 63 49 46
3 63 65 48
3 65 66 50
3 51 35 50
