ply
format ascii 1.0
comment Created by Blender 3.6.2 - www.blender.org
element vertex 112
property float x
property float y
property float z
property float nx
property float ny
property float nz
property uchar red
property uchar green
property uchar blue
property uchar alpha
element face 192
property list uchar uint vertex_indices
end_header
-0.004381 -0.002783 0.018345 0.000000 -1.000000 -0.000000 255 255 255 255
0.004829 -0.002783 0.018323 0.000000 -1.000000 -0.000000 255 255 255 255
0.012961 -0.002783 0.030854 0.000000 -1.000000 -0.000000 255 255 255 255
0.014511 -0.002783 0.044995 0.000000 -1.000000 -0.000000 255 255 255 255
-0.015212 -0.002783 0.043519 0.000000 -1.000000 -0.000000 255 255 255 255
0.013867 -0.002783 0.056637 0.000000 -1.000000 -0.000000 255 255 255 255
-0.015634 -0.002783 0.055944 0.000000 -1.000000 -0.000000 255 255 255 255
0.002519 -0.002783 0.066818 0.000000 -1.000000 -0.000000 255 255 255 255
-0.006232 -0.002783 0.066580 0.000000 -1.000000 -0.000000 255 255 255 255
-0.010973 -0.002783 0.063877 0.000000 -1.000000 -0.000000 255 255 255 255
-0.013088 -0.002783 0.029408 0.000000 -1.000000 -0.000000 255 255 255 255
0.009850 -0.002783 0.020628 0.000000 -1.000000 -0.000000 255 255 255 255
-0.009076 -0.002783 0.020014 0.000000 -1.000000 -0.000000 255 255 255 255
0.008394 -0.002783 0.065040 0.000000 -1.000000 -0.000000 255 255 255 255
0.020306 -0.000000 0.067373 0.171470 0.801619 0.572718 0 0 0 255
0.031202 -0.000000 0.068376 -0.128414 0.729692 0.671609 0 0 0 255
0.024962 -0.000000 0.060923 0.301956 0.761716 -0.573246 0 0 0 255
0.006180 -0.000000 0.012855 0.116036 0.674716 -0.728900 0 0 0 255
0.000000 -0.000000 0.012812 -0.000000 0.705438 -0.708772 0 0 0 255
0.020916 -0.000000 0.029408 0.606969 0.763077 0.222039 0 0 0 255
-0.006180 -0.000000 0.012855 -0.116037 0.674716 -0.728899 0 0 0 255
-0.020916 -0.000000 0.029408 -0.606969 0.763077 0.222039 0 0 0 255
-0.012029 -0.000000 0.014720 0.133554 0.849250 -0.510821 0 0 0 255
-0.019965 -0.000000 0.006213 0.414614 0.657777 -0.628828 0 0 0 255
-0.023325 -0.000000 0.025762 -0.571407 0.714302 0.404062 0 0 0 255
-0.024917 -0.000000 0.004430 0.066013 0.653767 -0.753811 0 0 0 255
-0.033482 -0.000000 0.012316 -0.756234 0.627804 0.184316 0 0 0 255
0.024917 -0.000000 0.004430 -0.066014 0.653767 -0.753811 0 0 0 255
0.019965 -0.000000 0.006213 -0.414614 0.657777 -0.628828 0 0 0 255
0.033482 -0.000000 0.012316 0.756234 0.627804 0.184316 0 0 0 255
0.012029 -0.000000 0.014720 -0.133554 0.849250 -0.510821 0 0 0 255
0.023325 -0.000000 0.025762 0.571407 0.714303 0.404062 0 0 0 255
0.032768 -0.000000 0.008123 0.686423 0.651424 -0.323219 0 0 0 255
-0.030401 -0.000000 0.005377 -0.379258 0.638383 -0.669799 0 0 0 255
-0.032768 -0.000000 0.008123 -0.686423 0.651424 -0.323218 0 0 0 255
0.030402 -0.000000 0.005377 0.379258 0.638383 -0.669799 0 0 0 255
-0.019164 -0.000000 0.044272 -0.684810 0.728526 0.016919 0 0 0 255
-0.020005 -0.000000 0.056636 -0.531218 0.804726 -0.264998 0 0 0 255
0.019164 -0.000000 0.044272 0.684809 0.728526 0.016919 0 0 0 255
-0.024962 -0.000000 0.060923 -0.301957 0.761716 -0.573245 0 0 0 255
-0.035841 -0.000000 0.063776 -0.266440 0.681807 -0.681284 0 0 0 255
-0.031202 -0.000000 0.068376 0.128414 0.729692 0.671609 0 0 0 255
-0.043954 -0.000000 0.068095 -0.467591 0.666719 -0.580383 0 0 0 255
-0.040249 -0.000000 0.071037 0.258628 0.730738 0.631770 0 0 0 255
-0.020306 -0.000000 0.067373 -0.171471 0.801619 0.572718 0 0 0 255
0.020005 -0.000000 0.056636 0.531218 0.804726 -0.264998 0 0 0 255
0.000000 -0.000000 0.075255 -0.000000 0.660830 0.750535 0 0 0 255
-0.049485 -0.000000 0.074630 -0.746140 0.546153 0.380778 0 0 0 255
-0.046570 0.000011 0.074407 0.207361 0.665562 0.716958 0 0 0 255
-0.014544 -0.000000 0.071972 -0.325254 0.660095 0.677114 0 0 0 255
0.043954 -0.000000 0.068095 0.467591 0.666719 -0.580383 0 0 0 255
0.035841 -0.000000 0.063776 0.266440 0.681807 -0.681285 0 0 0 255
0.040249 -0.000000 0.071037 -0.258628 0.730738 0.631770 0 0 0 255
0.014544 -0.000000 0.071972 0.325254 0.660095 0.677114 0 0 0 255
0.046570 0.000011 0.074407 -0.207361 0.665563 0.716958 0 0 0 255
0.049485 -0.000000 0.074630 0.746140 0.546154 0.380778 0 0 0 255
0.020306 -0.002783 0.067374 0.171538 -0.801491 0.572875 0 0 0 255
0.024962 -0.002783 0.060924 0.301865 -0.761850 -0.573116 0 0 0 255
0.031202 -0.002783 0.068377 -0.128449 -0.729533 0.671776 0 0 0 255
0.006180 -0.002783 0.012856 0.116017 -0.674888 -0.728743 0 0 0 255
0.009850 -0.002783 0.020628 0.000000 -1.000000 -0.000000 0 0 0 255
0.000000 -0.002783 0.012812 0.000000 -0.705606 -0.708604 0 0 0 255
-0.009076 -0.002783 0.020014 0.000000 -1.000000 -0.000000 0 0 0 255
-0.006180 -0.002783 0.012856 -0.116017 -0.674888 -0.728743 0 0 0 255
-0.012029 -0.002783 0.014721 0.133490 -0.849354 -0.510664 0 0 0 255
-0.023325 -0.002783 0.025763 -0.571490 -0.714206 0.404114 0 0 0 255
-0.019965 -0.002783 0.006214 0.414568 -0.657924 -0.628704 0 0 0 255
-0.033482 -0.002783 0.012317 -0.756245 -0.627762 0.184412 0 0 0 255
-0.024917 -0.002783 0.004430 0.066005 -0.653943 -0.753659 0 0 0 255
0.004829 -0.002783 0.018323 0.000000 -1.000000 -0.000000 0 0 0 255
-0.004381 -0.002783 0.018345 0.000000 -1.000000 -0.000000 0 0 0 255
-0.020916 -0.002783 0.029408 -0.607041 -0.763026 0.222020 0 0 0 255
0.024917 -0.002783 0.004430 -0.066005 -0.653943 -0.753659 0 0 0 255
0.033482 -0.002783 0.012317 0.756245 -0.627762 0.184412 0 0 0 255
0.019965 -0.002783 0.006214 -0.414568 -0.657924 -0.628704 0 0 0 255
0.023325 -0.002783 0.025763 0.571490 -0.714206 0.404114 0 0 0 255
0.012029 -0.002783 0.014721 -0.133490 -0.849355 -0.510664 0 0 0 255
0.032768 -0.002783 0.008123 0.686388 -0.651499 -0.323141 0 0 0 255
0.020916 -0.002783 0.029408 0.607041 -0.763026 0.222020 0 0 0 255
-0.032768 -0.002783 0.008123 -0.686388 -0.651499 -0.323141 0 0 0 255
-0.030401 -0.002783 0.005378 -0.379228 -0.638537 -0.669668 0 0 0 255
0.030402 -0.002783 0.005378 0.379228 -0.638538 -0.669668 0 0 0 255
-0.015212 -0.002783 0.043519 0.000000 -1.000000 -0.000000 0 0 0 255
-0.019164 -0.002783 0.044273 -0.684814 -0.728522 0.016899 0 0 0 255
-0.015634 -0.002783 0.055944 0.000000 -1.000000 -0.000000 0 0 0 255
-0.020005 -0.002783 0.056637 -0.531118 -0.804785 -0.265018 0 0 0 255
0.019164 -0.002783 0.044273 0.684814 -0.728522 0.016899 0 0 0 255
0.012961 -0.002783 0.030854 0.000000 -1.000000 -0.000000 0 0 0 255
-0.024962 -0.002783 0.060924 -0.301865 -0.761850 -0.573117 0 0 0 255
-0.031202 -0.002783 0.068377 0.128449 -0.729533 0.671776 0 0 0 255
-0.035841 -0.002783 0.063777 -0.266394 -0.681967 -0.681142 0 0 0 255
-0.040249 -0.002783 0.071038 0.257892 -0.730714 0.632098 0 0 0 255
-0.043954 -0.002783 0.068095 -0.467934 -0.667358 -0.579371 0 0 0 255
-0.020306 -0.002783 0.067374 -0.171538 -0.801491 0.572876 0 0 0 255
0.020005 -0.002783 0.056637 0.531118 -0.804785 -0.265018 0 0 0 255
0.014511 -0.002783 0.044995 0.000000 -1.000000 -0.000000 0 0 0 255
0.000000 -0.002783 0.075255 0.000000 -0.660656 0.750689 0 0 0 255
-0.006232 -0.002783 0.066580 0.000000 -1.000000 -0.000000 0 0 0 255
0.002519 -0.002783 0.066818 0.000000 -1.000000 -0.000000 0 0 0 255
-0.046570 -0.002772 0.074408 0.210426 -0.661790 0.719552 0 0 0 255
-0.049485 -0.002783 0.074631 -0.744707 -0.548027 0.380892 0 0 0 255
-0.014544 -0.002783 0.071972 -0.325294 -0.659938 0.677249 0 0 0 255
0.043954 -0.002783 0.068095 0.467935 -0.667358 -0.579371 0 0 0 255
0.040249 -0.002783 0.071038 -0.257892 -0.730714 0.632098 0 0 0 255
0.035841 -0.002783 0.063777 0.266394 -0.681967 -0.681142 0 0 0 255
0.014544 -0.002783 0.071972 0.325294 -0.659938 0.677249 0 0 0 255
0.046570 -0.002772 0.074408 -0.210426 -0.661790 0.719552 0 0 0 255
0.049485 -0.002783 0.074631 0.744707 -0.548027 0.380892 0 0 0 255
-0.013088 -0.002783 0.029408 0.000000 -1.000000 -0.000000 0 0 0 255
0.013867 -0.002783 0.056637 0.000000 -1.000000 -0.000000 0 0 0 255
-0.010973 -0.002783 0.063877 0.000000 -1.000000 0.000000 0 0 0 255
0.008394 -0.002783 0.065040 0.000000 -1.000000 -0.000000 0 0 0 255
3 0 1 2
3 3 4 2
3 5 6 3
3 7 8 9
3 4 3 6
3 10 2 4
3 11 2 1
3 2 10 0
3 10 12 0
3 9 6 7
3 6 5 7
3 5 13 7
3 14 15 16
3 17 18 19
3 18 20 21
3 22 23 24
3 23 25 26
3 24 23 26
3 18 21 19
3 20 22 21
3 27 28 29
3 28 30 31
3 27 29 32
3 30 17 19
3 25 33 34
3 34 26 25
3 22 24 21
3 35 27 32
3 21 36 19
3 31 29 28
3 19 31 30
3 36 37 38
3 19 36 38
3 39 40 41
3 40 42 43
3 37 39 44
3 38 37 45
3 45 37 46
3 40 43 41
3 42 47 48
3 43 42 48
3 46 37 49
3 50 51 52
3 51 16 15
3 16 45 14
3 14 45 53
3 44 49 37
3 39 41 44
3 51 15 52
3 54 55 50
3 52 54 50
3 46 53 45
3 56 57 58
3 59 60 61
3 62 63 61
3 64 65 66
3 66 67 68
3 65 67 66
3 61 69 70
3 63 71 64
3 72 73 74
3 74 75 76
3 72 77 73
3 76 78 59
3 68 79 80
3 79 68 67
3 64 71 65
3 81 77 72
3 71 82 83
3 75 74 73
3 78 76 75
3 83 84 85
3 86 87 78
3 88 89 90
3 90 91 92
3 85 93 88
3 94 95 86
3 96 97 98
3 90 89 91
3 92 99 100
3 91 99 92
3 96 101 85
3 102 103 104
3 104 58 57
3 57 56 94
3 56 105 94
3 93 85 101
3 88 93 89
3 104 103 58
3 106 102 107
3 103 102 106
3 96 94 105
3 35 72 27
3 85 39 37
3 56 15 14
3 32 81 35
3 88 40 39
3 53 56 14
3 29 77 32
3 90 42 40
3 17 61 18
3 61 20 18
3 31 73 29
3 92 47 42
3 46 105 53
3 63 22 20
3 19 75 31
3 47 99 48
3 22 66 23
3 38 78 19
3 99 43 48
3 23 68 25
3 45 86 38
3 43 89 41
3 68 33 25
3 16 94 45
3 41 93 44
3 80 34 33
3 51 57 16
3 93 49 44
3 79 26 34
3 50 104 51
3 101 46 49
3 67 24 26
3 55 102 50
3 30 59 17
3 65 21 24
3 106 55 54
3 74 30 28
3 71 36 21
3 52 106 54
3 72 28 27
3 83 37 36
3 58 52 15
3 60 78 87
3 108 71 62
3 59 78 60
3 62 71 63
3 61 60 69
3 70 62 61
3 71 108 82
3 83 82 84
3 86 95 87
3 94 109 95
3 85 84 110
3 96 85 110
3 111 109 94
3 111 94 96
3 96 110 97
3 98 111 96
3 35 81 72
3 85 88 39
3 56 58 15
3 32 77 81
3 88 90 40
3 53 105 56
3 29 73 77
3 90 92 42
3 17 59 61
3 61 63 20
3 31 75 73
3 92 100 47
3 46 96 105
3 63 64 22
3 19 78 75
3 47 100 99
3 22 64 66
3 38 86 78
3 99 91 43
3 23 66 68
3 45 94 86
3 43 91 89
3 68 80 33
3 16 57 94
3 41 89 93
3 80 79 34
3 51 104 57
3 93 101 49
3 79 67 26
3 50 102 104
3 101 96 46
3 67 65 24
3 55 107 102
3 30 76 59
3 65 71 21
3 106 107 55
3 74 76 30
3 71 83 36
3 52 103 106
3 72 74 28
3 83 85 37
3 58 103 52
