ply
format ascii 1.0
comment Created by Blender 3.6.2 - www.blender.org
element vertex 86
property float x
property float y
property float z
property float nx
property float ny
property float nz
property uchar red
property uchar green
property uchar blue
property uchar alpha
element face 158
property list uchar uint vertex_indices
end_header
-0.027671 0.008991 0.223990 -0.896577 0.291316 0.333593 68 105 146 255
0.000001 0.000000 0.280906 0.000000 0.000000 1.000000 68 105 146 255
-0.021377 0.029424 0.218993 -0.570349 0.785019 -0.241759 68 105 146 255
0.021379 0.029424 0.218993 0.570349 0.785019 -0.241759 68 105 146 255
0.027673 0.008991 0.223990 0.896577 0.291316 0.333593 68 105 146 255
0.017103 -0.023539 0.223990 0.554115 -0.762674 0.333593 68 105 146 255
0.000001 -0.036370 0.218993 0.000000 -0.970336 -0.241759 68 105 146 255
-0.034589 -0.011239 0.218993 -0.922845 -0.299851 -0.241759 68 105 146 255
0.000001 0.029096 0.223990 -0.000000 0.942717 0.333593 68 105 146 255
0.034591 -0.011239 0.218993 0.922845 -0.299851 -0.241759 68 105 146 255
-0.017101 -0.023539 0.223990 -0.554115 -0.762674 0.333593 68 105 146 255
-0.017101 0.023540 0.213880 -0.586690 0.807509 -0.061027 68 105 146 255
0.017103 0.023540 0.213880 0.586690 0.807509 -0.061027 68 105 146 255
0.000001 -0.029096 0.213880 0.000000 -0.998136 -0.061027 68 105 146 255
-0.027671 -0.008991 0.213880 -0.949284 -0.308441 -0.061027 68 105 146 255
0.027673 -0.008991 0.213880 0.949284 -0.308441 -0.061027 68 105 146 255
0.043407 0.014104 0.190670 0.915124 0.297342 -0.272278 68 105 146 255
0.000001 -0.036511 0.197571 0.000000 -0.953916 0.300072 68 105 146 255
0.026827 -0.036923 0.190670 0.565578 -0.778451 -0.272278 68 105 146 255
-0.043405 0.014104 0.190670 -0.915124 0.297342 -0.272278 68 105 146 255
0.021462 0.029539 0.197571 0.560698 0.771735 0.300072 68 105 146 255
0.000001 0.045640 0.190670 -0.000000 0.962219 -0.272278 68 105 146 255
-0.034724 -0.011282 0.197571 -0.907228 -0.294776 0.300072 68 105 146 255
-0.026825 -0.036923 0.190670 -0.565578 -0.778451 -0.272278 68 105 146 255
0.034725 -0.011282 0.197571 0.907228 -0.294776 0.300072 68 105 146 255
-0.021460 0.029539 0.197571 -0.560698 0.771735 0.300072 68 105 146 255
0.021462 -0.029538 0.184285 0.586320 -0.807000 -0.070575 68 105 146 255
-0.034724 0.011283 0.184285 -0.948685 0.308246 -0.070575 68 105 146 255
0.000001 0.036512 0.184285 -0.000000 0.997506 -0.070575 68 105 146 255
-0.021460 -0.029538 0.184285 -0.586320 -0.807000 -0.070575 68 105 146 255
0.034725 0.011283 0.184285 0.948685 0.308246 -0.070575 68 105 146 255
-0.043492 0.014132 0.162581 -0.911447 0.296147 0.285590 68 105 146 255
-0.054365 -0.017664 0.152802 -0.910319 -0.295780 -0.289540 68 105 146 255
0.033601 0.046247 0.152802 0.562608 0.774364 -0.289540 68 105 146 255
0.026881 -0.036997 0.162581 0.563305 -0.775323 0.285590 68 105 146 255
0.054367 -0.017664 0.152802 0.910319 -0.295781 -0.289540 68 105 146 255
0.000001 0.045731 0.162581 -0.000000 0.958352 0.285590 68 105 146 255
-0.033599 0.046247 0.152802 -0.562608 0.774364 -0.289540 68 105 146 255
-0.026879 -0.036997 0.162581 -0.563305 -0.775323 0.285590 68 105 146 255
0.000001 -0.057163 0.152802 0.000000 -0.957166 -0.289540 68 105 146 255
0.043493 0.014132 0.162581 0.911447 0.296147 0.285590 68 105 146 255
0.043493 -0.014131 0.144709 0.949667 -0.308566 -0.054029 68 105 146 255
-0.043492 -0.014131 0.144709 -0.949667 -0.308566 -0.054029 68 105 146 255
-0.026879 0.036997 0.144709 -0.586927 0.807835 -0.054029 68 105 146 255
0.000001 -0.045731 0.144709 0.000000 -0.998539 -0.054029 68 105 146 255
0.026881 0.036997 0.144709 0.586927 0.807835 -0.054029 68 105 146 255
-0.054463 -0.017696 0.118368 -0.910528 -0.295849 0.288811 68 105 146 255
-0.042075 -0.057912 0.105549 -0.561323 -0.772595 -0.296670 68 105 146 255
0.000001 0.071584 0.105549 -0.000000 0.954980 -0.296671 68 105 146 255
0.054465 -0.017696 0.118368 0.910528 -0.295848 0.288811 68 105 146 255
0.068081 0.022121 0.105549 0.908240 0.295105 -0.296670 68 105 146 255
-0.033660 0.046330 0.118368 -0.562738 0.774542 0.288811 68 105 146 255
-0.068079 0.022121 0.105549 -0.908240 0.295105 -0.296671 68 105 146 255
0.000001 -0.057267 0.118368 -0.000000 -0.957386 0.288811 68 105 146 255
0.042077 -0.057912 0.105549 0.561323 -0.772595 -0.296670 68 105 146 255
0.033661 0.046330 0.118368 0.562737 0.774542 0.288811 68 105 146 255
0.000001 0.057267 0.095611 -0.000000 0.998484 -0.055040 68 105 146 255
0.054465 0.017697 0.095611 0.949615 0.308548 -0.055040 68 105 146 255
-0.033660 -0.046330 0.095611 -0.586894 -0.807790 -0.055040 68 105 146 255
-0.054463 0.017697 0.095611 -0.949615 0.308549 -0.055040 68 105 146 255
0.033661 -0.046330 0.095611 0.586894 -0.807790 -0.055040 68 105 146 255
0.085211 -0.027686 0.044484 0.802883 -0.260873 -0.536026 68 105 146 255
-0.042129 -0.057987 0.064216 -0.575826 -0.792556 -0.200699 68 105 146 255
0.000001 -0.089595 0.044484 0.000000 -0.844201 -0.536026 68 105 146 255
-0.052662 0.072484 0.044484 -0.496209 0.682973 -0.536027 68 105 146 255
0.068169 0.022149 0.064216 0.931705 0.302729 -0.200699 68 105 146 255
0.052664 0.072484 0.044484 0.496209 0.682973 -0.536026 68 105 146 255
-0.068167 0.022149 0.064216 -0.931705 0.302730 -0.200699 68 105 146 255
-0.085209 -0.027686 0.044484 -0.802883 -0.260872 -0.536026 68 105 146 255
0.042131 -0.057987 0.064216 0.575826 -0.792556 -0.200699 68 105 146 255
0.000001 0.071677 0.064216 -0.000000 0.979653 -0.200699 68 105 146 255
0.000001 -0.051391 0.044484 -0.000000 -0.129333 -0.991601 68 105 146 255
-0.030206 0.041577 0.044484 -0.076020 0.104633 -0.991601 68 105 146 255
0.030208 0.041577 0.044484 0.076020 0.104633 -0.991601 68 105 146 255
-0.048875 -0.015881 0.044484 -0.123003 -0.039966 -0.991601 68 105 146 255
0.048877 -0.015881 0.044484 0.123003 -0.039966 -0.991601 68 105 146 255
-0.036866 -0.011979 -0.001553 -0.925048 -0.300566 0.232265 97 62 33 255
0.000001 -0.038764 -0.001553 0.000000 -0.972652 0.232265 97 62 33 255
0.000001 -0.023184 0.063690 0.000000 -0.972653 0.232265 97 62 33 255
-0.022049 -0.007164 0.063690 -0.925048 -0.300566 0.232265 97 62 33 255
-0.022784 0.031361 -0.001553 -0.571711 0.786892 0.232265 97 62 33 255
-0.013627 0.018757 0.063690 -0.571711 0.786892 0.232265 97 62 33 255
0.036868 -0.011979 -0.001553 0.925048 -0.300566 0.232265 97 62 33 255
0.022051 -0.007164 0.063690 0.925048 -0.300566 0.232265 97 62 33 255
0.022786 0.031361 -0.001553 0.571711 0.786892 0.232265 97 62 33 255
0.013628 0.018757 0.063690 0.571711 0.786893 0.232265 97 62 33 255
3 0 1 2
3 3 1 4
3 5 1 6
3 7 1 0
3 8 1 3
3 9 1 5
3 10 1 7
3 2 1 8
3 4 1 9
3 6 1 10
3 2 11 0
3 4 12 3
3 6 13 5
3 0 14 7
3 3 12 8
3 5 15 9
3 7 14 10
3 8 11 2
3 9 15 4
3 10 13 6
3 12 4 16
3 13 17 18
3 14 0 19
3 12 20 21
3 15 5 18
3 14 22 23
3 11 8 21
3 15 24 16
3 13 10 23
3 11 25 19
3 17 26 18
3 19 27 22
3 20 28 21
3 18 26 24
3 22 29 23
3 21 28 25
3 24 30 16
3 23 29 17
3 25 27 19
3 16 30 20
3 27 31 32
3 28 20 33
3 26 34 35
3 29 22 32
3 28 36 37
3 30 24 35
3 29 38 39
3 27 25 37
3 30 40 33
3 26 17 39
3 34 41 35
3 32 42 38
3 36 43 37
3 35 41 40
3 38 44 39
3 37 43 31
3 40 45 33
3 39 44 34
3 31 42 32
3 33 45 36
3 42 46 47
3 43 36 48
3 41 49 50
3 44 38 47
3 43 51 52
3 45 40 50
3 44 53 54
3 42 31 52
3 45 55 48
3 41 34 54
3 48 56 51
3 49 57 50
3 47 58 53
3 51 59 52
3 50 57 55
3 53 60 54
3 52 59 46
3 55 56 48
3 54 60 49
3 46 58 47
3 57 49 61
3 58 62 63
3 59 51 64
3 57 65 66
3 60 53 63
3 59 67 68
3 56 55 66
3 60 69 61
3 58 46 68
3 56 70 64
3 62 71 63
3 64 72 67
3 65 73 66
3 63 71 69
3 67 74 68
3 66 73 70
3 69 75 61
3 68 74 62
3 70 72 64
3 61 75 65
3 62 74 71
3 69 71 75
3 65 75 73
3 72 70 73
3 67 72 74
3 12 16 20
3 13 18 5
3 14 19 22
3 12 21 8
3 15 18 24
3 14 23 10
3 11 21 25
3 15 16 4
3 13 23 17
3 11 19 0
3 27 32 22
3 28 33 36
3 26 35 24
3 29 32 38
3 28 37 25
3 30 35 40
3 29 39 17
3 27 37 31
3 30 33 20
3 26 39 34
3 42 47 38
3 43 48 51
3 41 50 40
3 44 47 53
3 43 52 31
3 45 50 55
3 44 54 34
3 42 52 46
3 45 48 36
3 41 54 49
3 57 61 65
3 58 63 53
3 59 64 67
3 57 66 55
3 60 63 69
3 59 68 46
3 56 66 70
3 60 61 49
3 58 68 62
3 56 64 51
3 73 74 72
3 71 74 75
3 75 74 73
3 76 77 78
3 76 78 79
3 80 76 79
3 80 79 81
3 77 82 83
3 77 83 78
3 82 84 85
3 82 85 83
3 84 80 81
3 84 81 85
